<svg id="svg" xmlns="http://www.w3.org/2000/svg" xmlns:xlink="http://www.w3.org/1999/xlink" width="400" height="121.8543046357616" viewBox="0, 0, 400,121.8543046357616"><g id="svgg"><path id="path0" d="M39.167 29.823 C 38.090 29.943,36.667 30.523,36.667 30.841 C 36.667 30.932,36.460 31.319,36.208 31.700 L 35.750 32.392 35.750 58.668 C 35.750 87.136,35.721 86.167,36.576 86.167 C 36.668 86.167,37.195 86.448,37.747 86.792 L 38.750 87.417 46.250 87.478 C 55.098 87.551,56.376 87.449,57.875 86.550 C 58.402 86.234,58.833 85.898,58.833 85.804 C 58.833 85.709,59.058 85.298,59.333 84.891 L 59.833 84.150 59.833 58.592 L 59.833 33.033 59.248 32.164 C 58.927 31.686,58.620 31.123,58.568 30.914 C 58.303 29.859,57.622 29.780,48.500 29.739 C 43.962 29.719,39.762 29.757,39.167 29.823 M78.750 29.830 C 78.200 29.900,77.321 30.102,76.797 30.279 C 74.940 30.905,75.015 30.168,75.007 47.661 C 74.999 63.749,74.957 63.132,76.107 63.751 C 76.429 63.925,76.867 64.274,77.080 64.527 C 77.759 65.333,78.229 65.367,87.769 65.297 C 97.368 65.228,96.997 65.265,97.417 64.333 C 97.734 63.629,98.553 62.666,99.083 62.374 C 99.412 62.193,99.417 61.990,99.470 47.782 L 99.524 33.373 99.083 32.931 C 98.840 32.688,98.425 32.014,98.162 31.433 C 97.378 29.704,97.790 29.773,88.000 29.734 C 83.462 29.717,79.300 29.760,78.750 29.830 " stroke="none" fill="#f7f9fa" fill-rule="evenodd"></path><path id="path1" d="M39.654 27.729 C 38.959 27.832,38.209 28.035,37.987 28.179 C 37.765 28.323,37.088 28.670,36.482 28.950 C 33.775 30.204,33.942 28.461,33.872 56.333 C 33.794 87.633,33.687 86.290,36.425 88.183 C 37.108 88.655,37.667 89.098,37.667 89.167 C 37.667 89.719,53.056 90.088,56.356 89.615 C 58.679 89.283,61.052 87.101,61.522 84.868 C 62.037 82.421,61.996 34.151,61.477 32.036 C 60.925 29.781,59.252 28.529,55.833 27.811 C 54.137 27.454,41.922 27.393,39.654 27.729 M79.521 27.680 C 78.022 27.874,75.607 28.924,74.759 29.750 C 73.492 30.985,73.500 30.864,73.500 47.670 L 73.500 62.249 73.941 63.574 C 74.550 65.401,75.131 65.968,77.101 66.658 L 78.618 67.190 87.601 67.137 L 96.583 67.083 97.784 66.460 C 99.412 65.615,100.030 65.030,100.600 63.796 L 101.083 62.750 101.130 48.000 C 101.189 29.462,101.343 30.483,98.250 28.885 C 95.775 27.605,94.963 27.504,87.333 27.524 C 83.621 27.534,80.105 27.604,79.521 27.680 M55.833 28.729 C 57.464 28.984,59.665 29.920,60.059 30.526 C 61.033 32.026,61.000 31.060,61.000 58.379 C 61.000 87.461,61.084 85.981,59.384 87.014 C 59.035 87.226,58.366 87.679,57.896 88.022 C 56.491 89.048,55.453 89.167,47.857 89.166 C 40.048 89.166,38.686 89.040,37.800 88.240 C 37.460 87.932,36.897 87.535,36.549 87.357 C 34.551 86.332,34.667 88.114,34.667 58.385 C 34.667 28.301,34.479 30.641,36.986 29.454 C 37.971 28.987,38.754 28.741,39.500 28.662 C 41.607 28.439,54.313 28.491,55.833 28.729 M95.489 28.755 C 98.088 29.214,99.463 30.174,99.986 31.893 C 100.465 33.468,100.538 61.801,100.065 62.938 C 99.562 64.148,98.730 65.086,97.630 65.683 L 96.583 66.250 87.540 66.302 L 78.497 66.354 77.040 65.825 C 75.267 65.181,75.310 65.220,74.678 63.621 L 74.167 62.325 74.172 47.704 C 74.180 29.261,74.006 30.424,76.917 29.277 C 78.762 28.550,78.543 28.566,87.083 28.533 C 92.643 28.512,94.373 28.557,95.489 28.755 " stroke="none" fill="#9cbcdc" fill-rule="evenodd"></path><path id="path2" d="M39.500 28.662 C 38.754 28.741,37.971 28.987,36.986 29.454 C 34.479 30.641,34.667 28.301,34.667 58.385 C 34.667 88.114,34.551 86.332,36.549 87.357 C 36.897 87.535,37.460 87.932,37.800 88.240 C 38.686 89.040,40.048 89.166,47.857 89.166 C 55.453 89.167,56.491 89.048,57.896 88.022 C 58.366 87.679,59.035 87.226,59.384 87.014 C 61.084 85.981,61.000 87.461,61.000 58.379 C 61.000 31.060,61.033 32.026,60.059 30.526 C 59.665 29.920,57.464 28.984,55.833 28.729 C 54.313 28.491,41.607 28.439,39.500 28.662 M79.250 28.623 C 78.792 28.658,77.742 28.952,76.917 29.277 C 74.006 30.424,74.180 29.261,74.172 47.704 L 74.167 62.325 74.678 63.621 C 75.310 65.220,75.267 65.181,77.040 65.825 L 78.497 66.354 87.540 66.302 L 96.583 66.250 97.630 65.683 C 98.730 65.086,99.562 64.148,100.065 62.938 C 100.538 61.801,100.465 33.468,99.986 31.893 C 99.463 30.174,98.088 29.214,95.489 28.755 C 94.164 28.520,81.923 28.421,79.250 28.623 M57.611 30.154 C 58.197 30.412,58.503 30.655,58.568 30.914 C 58.620 31.123,58.927 31.686,59.248 32.164 L 59.833 33.033 59.833 58.592 L 59.833 84.150 59.333 84.891 C 59.058 85.298,58.833 85.709,58.833 85.804 C 58.833 85.898,58.402 86.234,57.875 86.550 C 56.376 87.449,55.098 87.551,46.250 87.478 L 38.750 87.417 37.747 86.792 C 37.195 86.448,36.668 86.167,36.576 86.167 C 35.721 86.167,35.750 87.136,35.750 58.668 L 35.750 32.392 36.208 31.700 C 36.460 31.319,36.667 30.932,36.667 30.841 C 36.667 30.523,38.090 29.943,39.167 29.823 C 42.112 29.495,56.707 29.757,57.611 30.154 M96.966 30.071 C 97.588 30.336,97.746 30.515,98.162 31.433 C 98.425 32.014,98.840 32.688,99.083 32.931 L 99.524 33.373 99.470 47.782 C 99.417 61.990,99.412 62.193,99.083 62.374 C 98.553 62.666,97.734 63.629,97.417 64.333 C 96.997 65.265,97.368 65.228,87.769 65.297 C 78.229 65.367,77.759 65.333,77.080 64.527 C 76.867 64.274,76.429 63.925,76.107 63.751 C 74.957 63.132,74.999 63.749,75.007 47.661 C 75.015 30.168,74.940 30.905,76.797 30.279 C 78.845 29.589,95.430 29.418,96.966 30.071 " stroke="none" fill="#c4d4ec" fill-rule="evenodd"></path><path id="path3" d="M298.000 0.750 L 298.000 1.500 297.344 1.500 C 295.927 1.500,295.698 1.760,295.547 3.538 L 295.452 4.660 294.733 5.008 C 293.470 5.620,292.846 7.632,292.836 11.125 L 292.833 12.167 292.328 12.167 C 290.928 12.167,290.472 12.728,290.236 14.739 C 290.124 15.702,288.939 17.333,288.353 17.333 C 287.885 17.333,287.667 17.887,287.667 19.077 L 287.667 20.296 287.100 20.402 C 285.814 20.644,285.000 22.223,285.000 24.476 L 285.000 25.500 284.375 25.502 C 282.895 25.508,282.552 26.055,282.376 28.687 L 282.250 30.583 281.279 30.688 C 279.969 30.828,279.681 31.264,279.671 33.125 C 279.667 33.687,279.606 33.833,279.375 33.834 C 278.837 33.835,277.998 34.492,277.728 35.124 C 277.580 35.468,277.382 35.898,277.288 36.079 C 277.194 36.261,277.081 36.912,277.037 37.527 L 276.957 38.645 276.317 38.753 C 274.959 38.982,274.558 39.714,274.358 42.328 L 274.250 43.747 273.431 43.863 C 272.231 44.035,271.998 44.354,271.794 46.105 L 271.622 47.583 270.455 48.698 L 269.287 49.812 269.116 51.416 C 268.955 52.932,268.920 53.033,268.476 53.263 C 268.217 53.396,267.895 53.720,267.759 53.983 C 267.623 54.245,267.394 54.505,267.249 54.561 C 266.858 54.711,266.556 55.595,266.426 56.969 L 266.311 58.189 265.237 59.294 C 264.008 60.561,263.879 60.895,263.724 63.222 C 263.622 64.756,263.589 64.871,263.211 65.015 C 262.182 65.406,261.333 67.356,261.333 69.330 C 261.333 70.271,261.198 70.500,260.643 70.500 C 259.395 70.500,258.667 71.246,258.667 72.525 C 258.667 72.949,258.609 73.000,258.125 73.004 C 256.440 73.016,255.992 73.334,255.854 74.612 L 255.750 75.583 254.734 75.667 C 253.700 75.751,253.167 76.017,253.167 76.445 C 253.167 76.804,251.563 78.333,251.187 78.333 C 251.005 78.333,250.757 78.433,250.635 78.555 C 250.513 78.677,250.198 78.831,249.935 78.897 C 249.299 79.057,248.520 79.858,248.395 80.482 C 248.305 80.936,248.203 81.005,247.356 81.192 C 246.196 81.449,245.584 82.007,245.424 82.957 L 245.308 83.646 244.373 83.763 C 243.207 83.908,242.757 84.319,242.597 85.385 L 242.480 86.167 241.595 86.167 C 239.656 86.167,237.974 87.026,237.665 88.174 C 237.500 88.786,237.498 88.788,236.378 88.902 C 235.337 89.009,234.667 89.322,234.667 89.700 C 234.667 89.782,234.295 90.221,233.841 90.675 L 233.016 91.500 231.077 91.500 C 229.049 91.500,228.509 91.240,229.947 90.956 C 230.776 90.792,231.281 90.276,231.461 89.411 L 231.598 88.750 232.761 88.575 C 233.856 88.410,234.181 88.299,234.583 87.956 C 234.675 87.878,234.995 87.669,235.294 87.491 C 235.593 87.314,235.963 86.906,236.116 86.584 C 236.270 86.263,236.473 86.000,236.568 86.000 C 236.663 86.000,237.243 85.841,237.858 85.647 C 239.027 85.278,239.029 85.276,239.439 83.917 C 239.548 83.558,239.707 83.404,240.003 83.373 C 241.549 83.209,242.167 82.634,242.167 81.358 C 242.167 80.841,242.459 80.674,243.367 80.669 C 244.417 80.664,244.932 80.097,245.036 78.833 C 245.082 78.266,245.106 78.247,245.917 78.152 C 247.350 77.983,247.483 77.850,247.652 76.417 L 247.750 75.583 248.662 75.472 C 249.804 75.333,250.084 75.013,250.236 73.676 C 250.347 72.692,250.363 72.667,250.847 72.667 C 252.134 72.667,252.709 72.054,252.873 70.503 C 252.904 70.207,253.058 70.048,253.417 69.939 C 254.978 69.468,255.106 69.327,255.491 67.658 C 255.675 66.857,255.786 66.689,256.310 66.408 C 256.647 66.227,257.064 65.806,257.250 65.459 C 257.433 65.115,257.674 64.834,257.786 64.834 C 258.132 64.833,258.333 64.230,258.333 63.197 L 258.333 62.205 259.416 62.137 C 260.736 62.053,260.891 61.912,260.999 60.701 L 261.083 59.750 261.957 59.662 C 263.103 59.547,263.318 59.300,263.443 57.960 L 263.546 56.855 264.185 56.747 C 265.540 56.518,265.942 55.786,266.142 53.177 L 266.250 51.764 266.911 51.627 C 268.634 51.270,268.750 50.695,268.750 42.500 C 268.750 34.140,268.690 33.840,266.951 33.580 L 266.193 33.466 266.077 32.608 C 265.857 30.974,265.629 30.831,263.018 30.689 L 261.087 30.583 260.970 29.765 C 260.719 28.004,260.400 27.955,249.681 28.038 C 240.007 28.114,240.000 28.115,240.000 30.161 L 240.000 30.667 238.542 30.668 C 236.615 30.669,235.129 30.915,234.917 31.268 C 234.586 31.818,233.023 33.333,232.787 33.333 C 232.654 33.333,232.366 33.465,232.147 33.625 C 231.929 33.785,231.476 34.056,231.142 34.225 C 230.782 34.408,230.409 34.782,230.227 35.142 C 229.825 35.939,229.333 36.500,229.038 36.500 C 228.546 36.500,227.814 37.102,227.488 37.775 C 227.302 38.159,227.041 38.563,226.908 38.674 C 226.775 38.784,226.666 38.959,226.666 39.062 C 226.666 39.165,226.385 39.400,226.041 39.584 C 225.685 39.774,225.274 40.185,225.084 40.543 C 224.900 40.887,224.623 41.210,224.467 41.260 C 224.311 41.310,224.136 41.502,224.077 41.687 C 223.977 42.003,223.951 42.007,223.664 41.748 C 223.155 41.287,221.396 41.177,214.500 41.173 C 205.842 41.169,204.496 41.402,203.683 43.044 L 203.337 43.745 201.961 43.941 C 200.982 44.081,200.537 44.221,200.418 44.425 C 199.936 45.250,198.556 46.448,197.980 46.541 L 197.377 46.639 197.268 45.444 C 197.052 43.062,196.494 41.979,195.319 41.663 C 194.711 41.499,194.697 41.477,194.583 40.496 C 194.426 39.146,194.145 38.843,192.834 38.608 C 191.769 38.417,191.764 38.414,191.628 37.758 C 191.330 36.322,190.404 36.088,185.083 36.103 C 179.837 36.118,179.265 36.281,179.008 37.833 C 178.912 38.413,178.905 38.417,177.879 38.516 C 176.817 38.618,176.333 38.858,176.333 39.285 C 176.333 39.420,176.011 39.843,175.617 40.226 C 173.557 42.228,173.557 45.272,175.617 47.274 C 176.582 48.212,176.694 49.553,175.823 49.727 C 174.298 50.032,173.827 51.468,173.686 56.246 L 173.583 59.741 172.857 59.865 C 171.364 60.119,171.152 60.662,171.019 64.583 L 170.917 67.583 170.250 67.676 C 168.727 67.887,168.524 68.303,168.384 71.512 L 168.285 73.773 167.693 74.095 C 167.145 74.392,166.433 75.329,165.990 76.333 C 165.888 76.563,165.763 77.737,165.712 78.943 L 165.618 81.136 164.871 81.248 C 163.807 81.408,163.416 81.871,163.166 83.272 C 162.982 84.302,162.896 84.473,162.401 84.798 C 162.094 84.999,161.711 85.370,161.549 85.623 C 161.387 85.876,161.156 86.160,161.035 86.254 C 160.772 86.459,160.510 87.507,160.504 88.372 C 160.501 88.913,160.441 89.007,160.042 89.094 C 158.071 89.524,157.695 90.870,157.884 96.833 C 158.018 101.075,158.184 101.506,159.774 101.760 L 160.465 101.870 160.578 102.920 C 160.713 104.184,161.025 104.532,162.135 104.660 L 162.917 104.750 163.005 105.625 C 163.128 106.854,163.456 107.130,164.958 107.269 C 165.910 107.357,166.167 107.438,166.167 107.649 C 166.173 110.176,173.747 110.457,175.073 107.979 C 175.375 107.417,175.477 107.361,176.559 107.168 C 178.020 106.907,178.376 106.574,178.642 105.223 C 178.827 104.284,178.881 104.199,179.349 104.105 C 180.667 103.842,181.262 102.410,181.440 99.072 L 181.555 96.917 182.236 96.247 C 183.305 95.196,184.156 92.123,184.164 89.292 C 184.166 88.333,184.210 88.167,184.458 88.166 C 184.997 88.165,185.835 87.508,186.106 86.876 C 186.253 86.532,186.457 86.100,186.558 85.917 C 186.659 85.733,186.781 85.133,186.829 84.583 C 186.914 83.617,186.933 83.582,187.417 83.535 C 188.607 83.420,189.164 82.890,189.169 81.867 C 189.173 81.039,189.357 80.666,189.812 80.568 C 191.131 80.282,191.351 80.046,191.839 78.392 C 192.005 77.827,192.132 77.682,192.532 77.602 C 193.134 77.482,193.944 76.699,194.097 76.090 C 194.239 75.522,194.736 75.008,195.539 74.600 C 195.948 74.392,196.275 74.049,196.494 73.597 C 196.819 72.925,197.549 72.333,198.055 72.333 C 198.515 72.333,199.323 71.492,199.502 70.826 C 199.657 70.251,199.757 70.156,200.380 69.995 C 200.767 69.895,201.213 69.776,201.371 69.730 C 201.817 69.601,202.295 68.889,202.416 68.172 C 202.525 67.524,202.530 67.520,203.460 67.404 C 204.664 67.254,205.076 66.856,205.230 65.700 L 205.345 64.833 206.297 64.832 C 206.821 64.832,207.465 64.719,207.727 64.582 C 207.990 64.445,208.496 64.333,208.852 64.333 C 209.752 64.333,210.167 63.886,210.167 62.917 C 210.167 62.250,210.208 62.167,210.542 62.166 C 210.907 62.166,210.915 62.201,210.833 63.540 L 210.750 64.914 209.931 65.030 C 208.521 65.231,208.178 66.058,208.170 69.273 L 208.167 70.630 207.558 70.744 C 205.717 71.089,205.583 71.808,205.584 81.333 C 205.584 90.565,205.624 90.766,207.505 91.084 L 208.167 91.196 208.177 92.806 C 208.196 95.965,208.415 96.465,209.855 96.641 L 210.750 96.750 210.833 97.965 C 210.879 98.633,210.999 99.233,211.099 99.298 C 211.200 99.363,211.336 99.638,211.402 99.908 C 211.544 100.485,212.558 101.500,212.994 101.500 C 213.161 101.500,213.341 101.612,213.394 101.750 C 213.446 101.887,213.628 102.000,213.797 102.000 C 213.985 102.000,214.214 102.228,214.384 102.584 C 214.537 102.906,214.907 103.313,215.206 103.489 C 215.505 103.665,215.913 103.976,216.112 104.179 C 216.403 104.476,216.719 104.564,217.722 104.629 L 218.971 104.709 219.076 105.270 C 219.315 106.542,220.958 107.333,223.357 107.333 L 224.470 107.333 224.830 108.077 C 225.125 108.686,225.359 108.900,226.126 109.263 L 227.061 109.705 232.322 109.784 C 240.866 109.912,241.971 109.726,242.291 108.101 L 242.426 107.417 243.588 107.311 C 245.962 107.095,247.028 106.493,247.264 105.233 C 247.358 104.733,247.432 104.666,247.894 104.663 C 249.557 104.650,250.204 104.197,250.329 102.957 L 250.417 102.083 251.500 101.997 C 252.096 101.949,252.733 101.827,252.917 101.726 C 253.100 101.624,253.532 101.420,253.876 101.272 C 254.508 101.002,255.165 100.163,255.166 99.625 C 255.166 99.465,255.223 99.331,255.292 99.328 C 256.252 99.289,257.953 98.944,258.174 98.744 C 258.440 98.502,258.467 98.561,258.571 99.617 C 258.761 101.539,259.063 101.918,260.500 102.036 C 261.081 102.083,261.084 102.087,261.188 103.057 C 261.317 104.256,261.549 104.502,262.686 104.641 L 263.579 104.750 263.696 105.569 C 263.868 106.768,264.190 107.004,265.940 107.216 L 267.417 107.394 268.511 108.512 L 269.605 109.629 272.015 109.749 C 275.481 109.923,284.428 109.758,285.237 109.506 C 286.043 109.254,286.805 108.518,286.936 107.862 C 287.030 107.393,287.087 107.363,288.098 107.255 C 289.517 107.103,289.878 106.796,289.993 105.645 L 290.083 104.750 291.139 104.666 C 292.435 104.563,292.666 104.312,292.667 103.010 L 292.668 102.083 292.982 102.598 C 293.393 103.273,294.056 103.782,294.708 103.926 C 295.317 104.060,295.952 104.663,296.392 105.527 C 296.861 106.448,298.363 107.177,300.021 107.291 C 301.277 107.377,301.303 107.388,301.398 107.867 C 301.529 108.520,302.294 109.256,303.096 109.502 C 303.912 109.751,313.049 109.924,316.277 109.752 L 318.562 109.629 319.656 108.514 C 320.725 107.425,320.779 107.394,321.992 107.178 C 323.450 106.919,324.045 106.453,324.240 105.414 C 324.383 104.649,324.547 104.506,325.284 104.503 C 326.405 104.497,326.997 103.905,327.003 102.784 C 327.006 102.012,327.148 101.889,328.139 101.796 C 329.246 101.692,329.641 101.327,329.824 100.235 L 329.961 99.417 329.980 100.114 C 330.021 101.557,330.246 101.777,331.861 101.946 C 332.799 102.044,332.833 102.065,332.833 102.529 C 332.833 103.872,333.398 104.349,335.267 104.584 C 336.024 104.679,336.146 104.752,336.385 105.254 C 336.533 105.564,336.863 105.947,337.118 106.106 C 337.374 106.265,337.704 106.542,337.851 106.720 C 338.212 107.158,339.277 107.311,342.030 107.323 L 344.311 107.333 344.651 107.811 C 345.413 108.881,345.748 108.934,346.551 108.108 L 347.265 107.373 350.174 107.301 L 353.083 107.229 354.122 106.674 C 354.952 106.230,355.230 105.975,355.509 105.399 C 355.839 104.717,355.910 104.668,356.856 104.482 C 358.158 104.226,358.487 103.937,358.736 102.830 C 358.938 101.933,358.950 101.920,359.659 101.799 C 360.951 101.579,361.291 101.164,361.577 99.458 C 361.655 98.994,361.763 98.833,361.996 98.833 C 362.440 98.833,363.454 97.825,363.598 97.241 C 363.664 96.971,363.799 96.698,363.897 96.633 C 363.995 96.569,364.104 95.960,364.138 95.280 L 364.201 94.043 365.206 93.952 C 366.466 93.838,366.652 93.647,366.799 92.320 L 366.917 91.250 367.500 91.202 C 368.737 91.101,369.333 90.579,369.333 89.596 C 369.333 88.561,369.530 88.182,370.246 87.835 C 371.201 87.373,372.011 85.888,372.152 84.338 L 372.250 83.260 372.934 83.125 C 374.187 82.878,374.833 81.364,374.833 78.673 C 374.833 77.743,374.850 77.705,375.315 77.612 C 376.745 77.326,377.320 75.918,377.453 72.375 L 377.548 69.833 378.178 69.663 C 379.534 69.299,379.946 68.159,380.136 64.250 L 380.250 61.917 381.250 61.806 C 381.800 61.746,383.028 61.615,383.979 61.517 C 386.324 61.273,387.336 60.938,387.782 60.257 L 388.134 59.721 391.692 59.607 C 396.734 59.447,397.772 59.132,398.175 57.636 C 398.344 57.008,398.356 57.000,399.173 57.000 L 400.000 57.000 400.000 50.422 L 400.000 43.844 398.049 43.797 L 396.098 43.750 395.961 43.089 C 395.606 41.377,395.345 41.333,385.515 41.333 L 377.546 41.333 377.434 40.238 C 377.236 38.304,376.119 36.500,375.120 36.500 C 374.862 36.500,374.592 35.946,374.418 35.063 C 374.239 34.149,373.583 33.759,371.595 33.380 C 371.295 33.323,370.697 32.879,370.046 32.231 C 368.527 30.720,368.709 30.750,361.167 30.750 C 354.645 30.750,354.450 30.766,353.760 31.366 C 353.663 31.450,353.339 31.665,353.040 31.842 C 352.740 32.019,352.372 32.424,352.221 32.740 C 351.968 33.271,351.873 33.324,351.015 33.418 C 348.968 33.643,348.713 33.817,348.528 35.109 L 348.413 35.917 347.380 36.016 C 346.397 36.110,345.833 36.357,345.833 36.695 C 345.833 36.893,344.231 38.500,344.034 38.500 C 343.661 38.500,343.283 39.223,343.187 40.120 L 343.083 41.083 342.417 41.176 C 341.163 41.350,340.667 41.939,340.667 43.254 C 340.667 43.888,340.462 44.085,339.652 44.231 C 338.948 44.357,338.402 44.884,338.249 45.583 C 338.027 46.597,337.808 46.920,337.116 47.250 C 336.619 47.487,336.324 47.777,336.098 48.250 C 335.923 48.617,335.703 49.067,335.610 49.250 C 335.516 49.433,335.397 50.070,335.345 50.664 L 335.250 51.745 334.667 51.842 C 333.382 52.054,333.131 52.363,332.844 54.087 C 332.662 55.184,332.612 55.277,332.042 55.587 C 331.066 56.117,330.325 57.561,330.133 59.307 L 329.976 60.730 328.899 61.761 C 327.588 63.015,327.515 63.235,327.384 66.333 L 327.282 68.750 326.234 69.756 C 324.856 71.079,324.820 71.202,324.711 75.024 L 324.617 78.298 323.554 78.365 C 322.725 78.418,322.410 78.516,322.121 78.812 C 321.917 79.020,321.505 79.335,321.206 79.511 C 320.907 79.687,320.537 80.094,320.384 80.416 C 320.214 80.772,319.985 81.000,319.797 81.000 C 319.628 81.000,319.450 81.104,319.401 81.231 C 319.352 81.359,319.087 81.508,318.812 81.563 C 318.201 81.685,317.391 82.463,317.237 83.077 C 317.099 83.628,316.546 84.247,316.054 84.401 C 315.618 84.538,314.667 85.479,314.667 85.773 C 314.667 85.889,314.558 86.044,314.426 86.118 C 314.294 86.192,314.118 86.436,314.035 86.660 L 313.885 87.067 313.448 86.630 C 313.024 86.206,313.019 86.179,313.281 85.655 C 313.572 85.072,313.810 83.239,313.824 81.473 L 313.833 80.363 314.577 80.003 C 315.633 79.492,316.165 78.334,316.378 76.083 C 316.522 74.563,316.577 74.380,317.004 74.000 C 318.699 72.491,318.912 71.990,319.149 68.942 L 319.250 67.634 319.902 67.411 C 321.147 66.984,321.531 66.118,321.768 63.209 L 321.879 61.834 322.489 61.670 C 323.628 61.363,324.428 59.878,324.542 57.859 C 324.581 57.177,324.623 57.120,325.235 56.911 C 326.412 56.508,327.167 54.840,327.167 52.640 C 327.167 52.129,327.245 51.801,327.375 51.764 C 327.490 51.731,327.902 51.618,328.291 51.513 C 329.299 51.239,329.754 50.018,329.879 47.250 L 329.917 46.417 330.812 46.307 C 331.984 46.164,332.160 45.954,332.372 44.439 C 332.510 43.460,332.612 43.167,332.817 43.166 C 333.333 43.165,334.174 42.496,334.439 41.876 C 334.587 41.532,334.782 41.106,334.873 40.929 C 334.965 40.753,335.087 40.078,335.145 39.429 L 335.250 38.250 335.833 38.202 C 337.222 38.089,337.667 37.597,337.667 36.174 C 337.667 35.382,337.684 35.355,338.392 35.012 C 338.883 34.774,339.219 34.460,339.432 34.039 C 339.605 33.697,339.851 33.287,339.979 33.129 C 340.106 32.971,340.248 32.316,340.294 31.674 L 340.378 30.506 341.198 30.397 C 342.364 30.242,342.665 29.934,342.892 28.667 C 343.083 27.601,343.085 27.598,343.744 27.461 C 344.522 27.299,345.098 26.811,345.240 26.193 C 345.593 24.649,345.736 24.362,346.283 24.101 C 346.587 23.956,346.980 23.593,347.156 23.294 C 347.332 22.995,347.602 22.623,347.756 22.469 C 347.924 22.301,348.110 21.678,348.219 20.922 C 348.386 19.765,348.438 19.648,348.826 19.564 C 350.175 19.273,350.445 18.971,350.824 17.325 C 351.008 16.529,351.121 16.354,351.635 16.075 C 352.179 15.779,352.898 14.843,353.328 13.870 C 354.258 11.763,353.758 1.500,352.724 1.500 C 352.570 1.500,352.500 1.267,352.500 0.750 L 352.500 0.000 341.500 0.000 L 330.500 0.000 330.500 0.658 C 330.500 1.410,330.116 1.897,329.125 2.401 C 327.983 2.982,327.472 4.401,327.371 7.274 L 327.289 9.631 326.603 9.741 C 325.198 9.965,324.874 10.542,324.685 13.167 L 324.583 14.583 323.688 14.673 C 322.509 14.792,322.222 15.148,322.071 16.673 C 321.981 17.584,321.899 17.833,321.687 17.834 C 321.168 17.835,320.327 18.502,320.061 19.124 C 319.913 19.468,319.720 19.891,319.632 20.063 C 319.543 20.234,319.430 20.920,319.380 21.587 L 319.288 22.798 318.602 22.907 C 317.187 23.133,316.883 23.690,316.690 26.417 L 316.583 27.917 316.000 27.964 C 314.603 28.078,314.278 28.458,314.084 30.200 C 313.985 31.084,313.937 31.170,313.375 31.450 C 312.472 31.899,311.695 33.447,311.558 35.069 L 311.453 36.312 310.768 36.424 C 309.568 36.621,309.073 37.522,308.856 39.910 L 308.750 41.070 308.089 41.206 C 306.808 41.471,306.421 42.261,306.192 45.081 L 306.083 46.412 305.500 46.508 C 304.004 46.756,303.648 47.540,303.458 50.998 C 303.418 51.713,303.391 51.750,302.833 51.842 C 301.338 52.089,300.982 52.871,300.791 56.327 C 300.751 57.049,300.731 57.074,300.089 57.207 C 298.783 57.476,298.459 58.163,298.234 61.136 L 298.119 62.667 297.507 62.831 C 296.163 63.193,295.733 64.307,295.560 67.872 L 295.449 70.162 294.762 70.494 C 293.700 71.008,293.180 72.264,292.918 74.951 L 292.801 76.153 292.077 76.503 C 291.544 76.761,291.262 77.043,291.005 77.574 C 290.651 78.304,290.278 78.500,289.237 78.500 C 288.228 78.500,287.667 79.154,287.667 80.329 L 287.667 80.976 286.728 81.093 C 285.546 81.241,285.241 81.543,285.096 82.710 L 284.981 83.631 284.060 83.746 C 282.914 83.889,282.570 84.217,282.420 85.311 L 282.303 86.159 281.451 86.272 C 280.338 86.420,279.919 86.842,279.770 87.967 C 279.575 89.437,279.269 89.026,279.391 87.458 C 279.450 86.702,279.498 85.399,279.499 84.563 L 279.500 83.042 280.011 82.940 C 281.222 82.697,281.870 81.342,282.084 78.604 L 282.200 77.126 283.125 76.188 C 284.331 74.964,284.478 74.568,284.710 71.904 C 284.868 70.088,284.953 69.667,285.161 69.666 C 286.417 69.663,287.153 68.189,287.425 65.134 C 287.518 64.096,287.562 63.996,288.067 63.698 C 288.890 63.213,289.635 61.753,289.848 60.208 C 289.946 59.498,290.077 58.898,290.138 58.874 C 290.713 58.657,291.387 58.057,291.702 57.484 C 291.912 57.101,292.169 56.641,292.273 56.462 C 292.378 56.282,292.517 55.493,292.582 54.709 C 292.707 53.207,293.541 51.941,294.633 51.594 C 295.044 51.464,295.331 50.622,295.332 49.545 C 295.333 48.911,295.380 48.830,295.792 48.740 C 297.436 48.381,297.745 47.862,297.974 45.083 L 298.083 43.750 299.072 43.644 C 300.253 43.517,300.441 43.316,300.586 42.023 C 300.731 40.720,300.728 40.726,301.454 40.610 C 302.584 40.429,303.242 39.105,303.371 36.750 L 303.417 35.917 304.405 35.811 C 305.587 35.684,305.775 35.483,305.919 34.190 C 306.065 32.887,306.061 32.893,306.787 32.777 C 307.598 32.647,308.092 32.134,308.335 31.167 C 308.438 30.754,308.562 30.259,308.610 30.065 C 308.657 29.872,308.953 29.592,309.266 29.443 C 309.579 29.293,309.980 28.926,310.156 28.627 C 310.332 28.328,310.642 27.920,310.846 27.721 C 311.119 27.454,311.241 27.085,311.316 26.305 L 311.417 25.250 312.133 25.154 C 313.024 25.036,313.485 24.590,313.598 23.740 C 313.813 22.116,313.848 22.000,314.133 21.999 C 314.664 21.998,315.503 21.338,315.772 20.709 C 315.920 20.365,316.120 19.933,316.217 19.750 C 316.314 19.567,316.436 18.931,316.488 18.337 L 316.583 17.258 317.284 17.139 C 318.622 16.912,318.818 16.632,319.081 14.579 C 319.176 13.834,319.254 13.705,319.791 13.412 C 321.245 12.620,321.743 10.872,321.619 7.000 C 321.506 3.477,321.061 2.337,319.692 2.063 C 319.151 1.955,319.006 1.653,319.002 0.625 L 319.000 0.000 308.500 0.000 L 298.000 0.000 298.000 0.750 M182.302 10.587 C 181.065 10.833,179.875 11.312,179.220 11.827 C 178.805 12.154,178.569 12.167,172.936 12.167 C 165.113 12.168,163.386 12.457,162.168 13.973 L 161.622 14.653 147.186 14.701 C 130.548 14.757,131.500 14.643,131.500 16.579 C 131.500 17.211,131.142 17.667,130.646 17.667 C 129.030 17.667,128.546 19.748,128.707 26.000 C 128.808 29.920,128.946 30.228,130.664 30.369 C 131.282 30.420,131.317 30.478,131.613 31.915 C 131.812 32.882,132.253 33.034,135.120 33.132 L 137.505 33.213 137.608 33.648 C 137.892 34.846,139.492 35.526,142.244 35.618 C 145.005 35.710,145.040 35.719,144.741 36.292 C 144.604 36.554,144.502 37.222,144.501 37.854 C 144.500 38.938,144.491 38.960,144.018 39.055 C 142.807 39.297,142.036 40.788,141.882 43.188 C 141.790 44.624,141.789 44.626,141.227 44.894 C 140.918 45.042,140.519 45.407,140.342 45.706 C 140.165 46.005,139.950 46.330,139.866 46.427 C 139.436 46.922,139.305 47.530,139.199 49.542 L 139.083 51.738 138.458 51.886 C 137.313 52.156,136.667 53.987,136.667 56.970 L 136.667 58.189 135.651 59.196 C 134.314 60.520,134.171 60.911,134.051 63.567 L 133.951 65.773 133.359 66.095 C 131.968 66.851,131.344 68.887,131.336 72.699 C 131.334 74.011,131.298 74.173,130.958 74.410 C 129.177 75.657,128.848 76.595,128.684 80.903 L 128.583 83.556 128.083 83.717 C 126.510 84.221,126.000 86.167,126.000 91.676 C 126.000 93.824,125.980 93.963,125.583 94.500 C 124.863 95.476,124.500 96.710,124.500 98.179 L 124.500 99.512 125.225 100.217 L 125.949 100.921 126.037 102.466 C 126.123 103.962,126.388 104.667,126.867 104.667 C 127.061 104.667,128.667 106.272,128.667 106.466 C 128.667 106.881,129.347 107.172,130.551 107.274 L 131.827 107.382 132.175 108.101 C 132.856 109.508,133.643 109.716,138.583 109.797 C 146.312 109.924,147.002 109.590,147.000 105.723 C 147.000 104.870,147.006 104.860,147.740 104.505 C 149.218 103.789,149.342 102.982,149.604 92.344 L 149.720 87.605 150.633 86.678 C 152.132 85.156,152.324 84.376,152.330 79.807 L 152.333 77.696 153.077 77.337 C 154.407 76.692,154.995 74.730,154.999 70.917 L 155.001 69.417 155.617 69.083 C 156.186 68.775,156.901 67.843,157.341 66.836 C 157.440 66.608,157.566 65.395,157.619 64.141 L 157.717 61.861 158.270 61.757 C 159.603 61.507,160.333 60.010,160.333 57.530 C 160.333 56.561,160.343 56.540,160.844 56.440 C 162.040 56.200,162.565 55.163,162.763 52.642 C 162.874 51.236,162.888 51.197,163.336 51.108 C 164.467 50.882,165.232 49.466,165.435 47.223 L 165.546 46.000 166.159 45.835 C 167.346 45.516,167.912 44.392,168.111 41.958 L 168.216 40.666 168.827 40.502 C 169.978 40.192,170.553 39.098,170.773 36.802 L 170.879 35.688 171.518 35.580 C 172.887 35.349,173.236 34.707,173.432 32.059 L 173.545 30.535 180.481 30.476 C 184.296 30.443,188.465 30.454,189.746 30.500 L 192.075 30.583 192.194 31.284 C 192.461 32.856,192.911 33.034,196.667 33.062 C 200.636 33.092,201.971 32.630,202.252 31.129 L 202.363 30.541 203.679 30.465 C 204.465 30.419,205.114 30.293,205.290 30.151 C 205.451 30.021,205.865 29.771,206.209 29.597 C 206.696 29.350,206.953 29.037,207.372 28.182 L 207.911 27.083 207.914 23.833 C 207.918 19.374,207.601 18.260,206.206 17.834 C 205.229 17.535,204.833 17.299,204.833 17.014 C 204.831 16.501,204.161 15.659,203.543 15.394 C 203.198 15.247,202.776 15.054,202.604 14.965 C 202.432 14.877,201.743 14.763,201.073 14.712 L 199.855 14.620 199.747 13.982 C 199.497 12.500,198.757 12.169,195.693 12.168 L 193.637 12.167 192.937 11.447 C 191.884 10.363,185.868 9.877,182.302 10.587 M29.236 12.356 C 28.735 12.468,28.266 12.789,27.466 13.566 C 26.445 14.557,26.317 14.630,25.397 14.737 C 23.386 14.973,23.061 15.216,22.858 16.633 C 22.750 17.389,22.747 17.392,21.880 17.587 C 20.444 17.911,20.219 18.331,20.023 21.069 L 19.917 22.555 19.354 22.744 C 18.672 22.973,18.089 23.618,17.804 24.459 C 17.515 25.311,17.383 93.454,17.664 96.250 C 17.878 98.378,18.226 99.246,19.268 100.259 C 19.885 100.859,19.983 101.057,20.088 101.928 C 20.311 103.782,20.661 104.236,22.049 104.473 L 22.750 104.592 22.859 105.484 C 23.014 106.746,23.321 106.992,25.011 107.208 L 26.398 107.385 27.461 108.442 C 28.045 109.024,28.724 109.556,28.970 109.625 C 29.216 109.694,46.629 109.750,67.667 109.750 C 110.827 109.750,106.792 109.882,107.179 108.457 C 107.285 108.068,107.396 107.663,107.425 107.556 C 107.457 107.442,107.948 107.332,108.614 107.290 C 111.041 107.136,112.500 105.948,112.500 104.125 C 112.500 103.998,112.763 103.770,113.084 103.616 C 113.406 103.463,113.813 103.093,113.989 102.794 C 114.165 102.495,114.430 102.129,114.576 101.981 C 115.157 101.396,115.167 100.753,115.163 61.084 C 115.159 21.913,115.140 20.585,114.586 20.028 C 114.434 19.875,114.165 19.505,113.989 19.206 C 113.813 18.907,113.406 18.537,113.084 18.384 C 112.763 18.230,112.500 18.002,112.500 17.875 C 112.500 16.056,111.090 14.905,108.590 14.685 L 107.430 14.583 107.293 13.922 C 107.108 13.022,106.615 12.552,105.638 12.343 C 104.587 12.117,30.240 12.130,29.236 12.356 M57.421 26.551 C 57.909 26.710,58.496 27.068,58.825 27.408 C 59.137 27.730,59.746 28.110,60.180 28.255 C 61.213 28.598,61.716 29.086,62.074 30.093 C 62.235 30.546,62.584 31.459,62.850 32.121 L 63.333 33.326 63.333 58.422 L 63.333 83.518 62.687 85.478 C 61.899 87.870,61.841 87.965,60.543 89.020 C 58.529 90.655,59.136 90.576,48.106 90.631 C 36.918 90.687,37.312 90.731,35.647 89.246 C 35.085 88.744,34.565 88.333,34.491 88.333 C 34.280 88.333,33.528 86.650,33.412 85.917 C 33.355 85.550,33.107 84.875,32.862 84.417 L 32.417 83.583 32.361 60.917 C 32.300 35.666,32.342 33.447,32.900 32.622 C 33.100 32.326,33.363 31.633,33.485 31.083 C 33.881 29.292,35.042 28.000,36.255 28.000 C 36.359 28.000,36.534 27.831,36.645 27.625 C 37.016 26.936,37.994 26.445,39.250 26.319 C 41.761 26.065,56.512 26.254,57.421 26.551 M95.388 26.338 C 97.100 26.534,97.834 26.802,98.430 27.450 C 98.667 27.707,99.323 28.142,99.888 28.417 C 101.104 29.008,101.573 29.625,101.826 30.969 C 101.924 31.490,102.116 32.254,102.253 32.667 C 102.605 33.727,102.628 61.925,102.277 62.633 C 102.155 62.881,101.925 63.579,101.766 64.184 C 101.291 65.989,99.631 67.500,98.123 67.500 C 97.996 67.500,97.713 67.690,97.495 67.922 C 96.612 68.862,96.035 68.917,87.000 68.917 C 78.065 68.917,78.119 68.921,77.204 68.103 C 76.863 67.797,76.283 67.451,75.917 67.334 C 74.160 66.774,73.691 66.265,73.148 64.333 C 73.032 63.921,72.730 63.341,72.477 63.045 C 71.803 62.257,71.816 62.603,71.868 47.167 L 71.917 32.917 72.458 32.118 C 72.755 31.679,73.044 31.032,73.100 30.681 C 73.320 29.306,74.206 28.353,75.502 28.096 C 75.732 28.051,76.049 27.795,76.208 27.527 C 76.597 26.868,77.517 26.460,78.917 26.327 C 80.814 26.146,93.790 26.155,95.388 26.338 M359.101 62.098 C 359.061 62.202,358.737 62.333,358.380 62.390 C 357.124 62.591,356.521 64.088,356.506 67.042 C 356.501 68.000,356.457 68.167,356.208 68.167 C 355.670 68.168,354.832 68.825,354.561 69.457 C 354.413 69.802,354.220 70.224,354.132 70.396 C 354.043 70.568,353.929 71.263,353.878 71.940 C 353.790 73.101,353.760 73.178,353.351 73.266 C 351.758 73.611,351.263 74.533,351.124 77.417 L 351.083 78.250 350.171 78.361 C 349.015 78.502,348.742 78.825,348.592 80.227 C 348.479 81.281,348.467 81.302,347.922 81.405 C 346.691 81.636,346.060 82.728,345.846 85.000 L 345.744 86.083 345.536 84.969 C 345.378 84.125,345.368 83.317,345.497 81.636 C 345.590 80.415,345.666 78.907,345.666 78.285 L 345.667 77.153 346.744 76.071 C 348.006 74.803,348.124 74.480,348.274 71.892 L 348.382 70.035 349.066 69.926 C 350.479 69.700,350.783 69.142,350.977 66.418 L 351.083 64.920 351.902 64.803 C 353.027 64.643,353.330 64.287,353.499 62.927 C 353.659 61.632,353.570 61.778,354.512 61.281 C 355.479 60.772,356.199 59.503,356.327 58.083 L 356.417 57.083 357.083 56.991 C 358.313 56.820,358.833 56.225,358.833 54.989 C 358.833 54.735,358.890 54.390,358.958 54.222 C 359.087 53.907,359.229 61.763,359.101 62.098 M312.159 88.485 C 312.292 88.734,312.260 88.814,311.996 88.883 C 311.816 88.930,311.597 89.144,311.511 89.359 C 311.385 89.673,311.352 89.560,311.344 88.786 C 311.333 87.770,311.703 87.634,312.159 88.485 " stroke="none" fill="#4c74b4" fill-rule="evenodd"></path><path id="path4" d="M39.250 26.319 C 37.994 26.445,37.016 26.936,36.645 27.625 C 36.534 27.831,36.359 28.000,36.255 28.000 C 35.042 28.000,33.881 29.292,33.485 31.083 C 33.363 31.633,33.100 32.326,32.900 32.622 C 32.342 33.447,32.300 35.666,32.361 60.917 L 32.417 83.583 32.862 84.417 C 33.107 84.875,33.355 85.550,33.412 85.917 C 33.528 86.650,34.280 88.333,34.491 88.333 C 34.565 88.333,35.085 88.744,35.647 89.246 C 37.312 90.731,36.918 90.687,48.106 90.631 C 59.136 90.576,58.529 90.655,60.543 89.020 C 61.841 87.965,61.899 87.870,62.687 85.478 L 63.333 83.518 63.333 58.422 L 63.333 33.326 62.850 32.121 C 62.584 31.459,62.235 30.546,62.074 30.093 C 61.716 29.086,61.213 28.598,60.180 28.255 C 59.746 28.110,59.137 27.730,58.825 27.408 C 57.757 26.306,57.542 26.282,48.500 26.239 C 44.054 26.218,39.892 26.254,39.250 26.319 M78.917 26.327 C 77.517 26.460,76.597 26.868,76.208 27.527 C 76.049 27.795,75.732 28.051,75.502 28.096 C 74.206 28.353,73.320 29.306,73.100 30.681 C 73.044 31.032,72.755 31.679,72.458 32.118 L 71.917 32.917 71.868 47.167 C 71.816 62.603,71.803 62.257,72.477 63.045 C 72.730 63.341,73.032 63.921,73.148 64.333 C 73.691 66.265,74.160 66.774,75.917 67.334 C 76.283 67.451,76.863 67.797,77.204 68.103 C 78.119 68.921,78.065 68.917,87.000 68.917 C 96.035 68.917,96.612 68.862,97.495 67.922 C 97.713 67.690,97.996 67.500,98.123 67.500 C 99.631 67.500,101.291 65.989,101.766 64.184 C 101.925 63.579,102.155 62.881,102.277 62.633 C 102.628 61.925,102.605 33.727,102.253 32.667 C 102.116 32.254,101.924 31.490,101.826 30.969 C 101.573 29.625,101.104 29.008,99.888 28.417 C 99.323 28.142,98.667 27.707,98.430 27.450 C 97.834 26.802,97.100 26.534,95.388 26.338 C 93.790 26.155,80.814 26.146,78.917 26.327 M55.833 27.811 C 59.252 28.529,60.925 29.781,61.477 32.036 C 61.996 34.151,62.037 82.421,61.522 84.868 C 61.052 87.101,58.679 89.283,56.356 89.615 C 53.056 90.088,37.667 89.719,37.667 89.167 C 37.667 89.098,37.108 88.655,36.425 88.183 C 33.687 86.290,33.794 87.633,33.872 56.333 C 33.942 28.461,33.775 30.204,36.482 28.950 C 37.088 28.670,37.765 28.323,37.987 28.179 C 39.083 27.468,52.852 27.184,55.833 27.811 M95.583 27.894 C 97.808 28.469,99.807 29.556,100.376 30.500 C 101.158 31.796,101.180 32.312,101.130 48.000 L 101.083 62.750 100.600 63.796 C 100.030 65.030,99.412 65.615,97.784 66.460 L 96.583 67.083 87.601 67.137 L 78.618 67.190 77.101 66.658 C 75.131 65.968,74.550 65.401,73.941 63.574 L 73.500 62.249 73.500 47.670 C 73.500 30.864,73.492 30.985,74.759 29.750 C 75.607 28.924,78.022 27.874,79.521 27.680 C 82.253 27.326,93.989 27.482,95.583 27.894 " stroke="none" fill="#80a0cc" fill-rule="evenodd"></path></g></svg>