<svg id="svg" xmlns="http://www.w3.org/2000/svg" xmlns:xlink="http://www.w3.org/1999/xlink" width="400" height="93.65853658536587" viewBox="0, 0, 400,93.65853658536587"><g id="svgg"><path id="path0" d="M370.667 6.033 C 371.171 6.119,371.714 6.259,371.873 6.345 C 372.392 6.623,372.594 6.501,372.167 6.167 C 371.850 5.919,371.509 5.845,370.750 5.859 L 369.750 5.877 370.667 6.033 M361.667 7.239 L 361.083 7.453 361.781 7.438 C 362.164 7.430,362.389 7.366,362.281 7.297 C 362.164 7.223,362.266 7.171,362.532 7.169 C 362.779 7.168,363.027 7.242,363.083 7.333 C 363.140 7.425,363.047 7.500,362.877 7.500 C 362.498 7.500,361.167 8.341,361.167 8.580 C 361.167 8.933,359.098 9.455,358.771 9.184 C 358.648 9.082,358.367 9.064,358.080 9.141 C 357.703 9.242,357.658 9.294,357.876 9.378 C 358.030 9.437,358.201 9.412,358.256 9.323 C 358.311 9.234,358.427 9.205,358.514 9.259 C 358.818 9.447,358.459 9.693,358.036 9.586 C 357.701 9.502,357.644 9.526,357.772 9.698 C 358.009 10.014,357.278 10.705,356.989 10.439 C 356.831 10.293,356.809 10.326,356.893 10.583 L 357.001 10.917 356.730 10.583 C 356.461 10.253,356.459 10.253,356.544 10.613 C 356.605 10.874,356.565 10.950,356.398 10.886 C 356.271 10.838,356.167 10.889,356.167 11.002 C 356.167 11.122,356.033 11.171,355.839 11.120 C 355.659 11.073,355.528 11.111,355.547 11.205 C 355.567 11.298,355.479 11.413,355.352 11.459 C 355.217 11.508,355.166 11.469,355.230 11.366 C 355.290 11.269,355.252 11.136,355.147 11.071 C 354.955 10.952,354.342 11.595,354.340 11.917 C 354.339 12.008,354.408 11.973,354.494 11.838 C 354.630 11.622,354.658 11.622,354.727 11.838 C 354.892 12.354,354.762 12.705,354.347 12.867 C 353.134 13.341,352.853 13.510,352.752 13.826 C 352.692 14.017,352.562 14.122,352.462 14.060 C 352.352 13.992,352.330 14.027,352.407 14.150 C 352.656 14.553,352.353 15.167,351.906 15.167 C 351.668 15.167,351.312 15.352,351.089 15.593 C 350.817 15.887,350.672 15.951,350.622 15.801 C 350.581 15.681,350.580 15.764,350.617 15.984 C 350.655 16.205,350.588 16.447,350.468 16.523 C 350.288 16.637,350.289 16.662,350.468 16.664 C 350.588 16.666,350.639 16.743,350.582 16.836 C 350.524 16.929,350.420 16.970,350.351 16.928 C 350.282 16.885,350.231 16.993,350.238 17.168 C 350.244 17.343,350.201 17.471,350.140 17.452 C 350.001 17.407,349.237 18.370,349.288 18.526 C 349.308 18.590,349.102 18.691,348.829 18.751 C 348.552 18.812,348.333 18.968,348.333 19.106 C 348.333 19.242,348.408 19.307,348.500 19.250 C 348.592 19.193,348.667 19.222,348.667 19.314 C 348.667 19.405,348.586 19.530,348.486 19.592 C 348.387 19.653,348.349 19.874,348.402 20.082 C 348.512 20.524,348.285 20.752,347.580 20.902 C 347.060 21.013,346.553 21.786,346.723 22.208 C 346.776 22.340,346.812 22.316,346.820 22.143 C 346.827 21.992,346.947 21.826,347.085 21.772 C 347.223 21.719,347.317 21.580,347.293 21.463 C 347.269 21.346,347.349 21.271,347.471 21.296 C 347.604 21.324,347.643 21.263,347.568 21.142 C 347.486 21.010,347.531 20.976,347.702 21.042 C 347.844 21.096,348.044 21.056,348.146 20.954 C 348.285 20.815,348.333 20.837,348.333 21.038 C 348.333 21.187,348.127 21.471,347.875 21.670 C 347.623 21.868,347.417 22.081,347.417 22.144 C 347.417 22.349,346.713 23.158,346.618 23.063 C 346.568 23.012,346.528 26.625,346.530 31.091 L 346.534 39.211 346.980 39.647 C 347.432 40.089,347.500 40.200,347.500 40.500 C 347.500 40.592,347.584 40.648,347.687 40.625 C 347.791 40.602,347.913 40.689,347.960 40.818 C 348.022 40.988,347.959 41.023,347.731 40.943 C 347.433 40.838,347.433 40.845,347.740 41.083 C 347.918 41.221,347.974 41.333,347.865 41.333 C 347.535 41.333,347.001 40.692,347.105 40.420 C 347.159 40.281,347.115 40.167,347.008 40.167 C 346.901 40.167,346.866 40.073,346.931 39.958 C 347.023 39.796,347.001 39.794,346.834 39.949 C 346.441 40.312,346.947 41.156,347.769 41.508 C 348.477 41.811,348.483 41.822,348.405 42.532 C 348.358 42.956,348.383 43.163,348.467 43.037 C 348.571 42.880,348.660 42.936,348.801 43.245 C 348.960 43.594,349.108 43.667,349.663 43.667 C 350.185 43.667,350.336 43.731,350.347 43.958 C 350.381 44.675,350.541 45.296,350.842 45.880 C 351.222 46.617,351.233 46.681,350.968 46.625 C 350.859 46.602,350.743 46.704,350.710 46.852 C 350.638 47.180,351.714 47.737,352.182 47.614 C 352.357 47.569,352.500 47.597,352.500 47.677 C 352.500 47.757,352.631 47.775,352.792 47.717 C 353.069 47.615,353.069 47.626,352.792 47.943 C 352.052 48.788,353.212 49.948,354.057 49.208 C 354.374 48.931,354.385 48.931,354.283 49.208 C 354.186 49.477,354.336 49.582,354.721 49.516 C 354.796 49.502,354.820 49.553,354.774 49.628 C 354.496 50.078,355.670 51.315,356.192 51.122 C 356.354 51.062,356.327 51.002,356.096 50.907 C 355.163 50.524,354.845 49.745,355.601 49.694 C 355.922 49.673,356.167 49.735,356.167 49.838 C 356.167 49.939,356.074 49.964,355.958 49.895 C 355.817 49.809,355.823 49.860,355.979 50.051 C 356.177 50.296,356.169 50.333,355.915 50.333 C 355.684 50.333,355.718 50.409,356.071 50.687 C 356.318 50.881,356.482 51.140,356.435 51.262 C 356.382 51.400,356.437 51.450,356.584 51.393 C 356.712 51.344,356.915 51.367,357.034 51.444 C 357.248 51.582,357.321 51.595,358.214 51.642 C 358.629 51.664,358.659 51.703,358.495 52.009 C 358.394 52.198,358.348 52.441,358.393 52.551 C 358.437 52.660,358.480 52.600,358.488 52.417 C 358.500 52.117,358.539 52.129,358.876 52.540 C 359.082 52.792,359.438 53.027,359.667 53.063 C 359.896 53.099,360.069 53.200,360.051 53.286 C 360.033 53.376,360.823 53.460,361.884 53.483 C 363.942 53.525,363.928 53.520,364.255 54.437 C 364.382 54.793,364.489 54.991,364.493 54.878 C 364.500 54.670,365.667 55.112,365.667 55.323 C 365.667 55.374,367.504 55.417,369.750 55.417 C 371.996 55.417,373.833 55.352,373.833 55.274 C 373.833 55.195,374.021 55.178,374.251 55.235 C 374.481 55.293,374.650 55.278,374.626 55.201 C 374.603 55.125,374.827 54.817,375.125 54.518 C 375.423 54.219,375.667 53.872,375.667 53.748 C 375.667 53.572,376.053 53.519,377.397 53.514 C 378.349 53.510,379.328 53.430,379.573 53.337 C 379.865 53.226,379.984 53.225,379.916 53.334 C 379.860 53.425,379.893 53.500,379.990 53.500 C 380.087 53.500,380.168 53.406,380.169 53.292 C 380.171 53.147,380.218 53.157,380.323 53.323 C 380.438 53.504,380.566 53.521,380.852 53.394 C 381.184 53.246,381.195 53.213,380.939 53.115 C 380.745 53.040,380.688 53.067,380.767 53.194 C 380.840 53.313,380.811 53.339,380.689 53.264 C 380.550 53.178,380.590 53.022,380.830 52.716 C 381.015 52.481,381.167 52.152,381.167 51.985 C 381.167 51.651,382.148 51.366,382.515 51.593 C 382.645 51.673,382.675 51.649,382.599 51.526 C 382.521 51.399,382.627 51.333,382.907 51.333 C 383.141 51.333,383.334 51.240,383.334 51.125 C 383.335 51.010,383.597 50.739,383.915 50.522 C 384.234 50.305,384.454 50.061,384.404 49.980 C 384.278 49.775,385.103 49.486,385.443 49.616 C 385.646 49.694,385.684 49.663,385.585 49.502 C 385.482 49.336,385.538 49.304,385.807 49.375 C 386.050 49.438,386.167 49.392,386.167 49.234 C 386.167 49.105,386.279 49.000,386.417 49.000 C 386.554 49.000,386.667 48.887,386.667 48.750 C 386.667 48.612,386.746 48.500,386.843 48.500 C 386.940 48.500,386.973 48.575,386.917 48.667 C 386.860 48.758,386.901 48.833,387.008 48.833 C 387.133 48.833,387.165 48.683,387.098 48.417 C 387.041 48.188,387.065 48.000,387.152 48.000 C 387.239 48.000,387.358 47.850,387.417 47.667 C 387.475 47.483,387.620 47.333,387.739 47.333 C 387.858 47.333,388.157 47.175,388.403 46.981 C 388.649 46.787,388.884 46.661,388.924 46.701 C 389.053 46.831,388.319 47.511,388.157 47.411 C 388.071 47.357,388.000 47.401,388.000 47.508 C 388.000 47.617,388.116 47.658,388.264 47.601 C 388.409 47.546,388.587 47.500,388.660 47.500 C 388.908 47.500,389.256 46.446,389.033 46.372 C 388.751 46.278,388.784 46.000,389.078 46.000 C 389.230 46.000,389.286 45.903,389.224 45.743 C 389.170 45.602,389.191 45.505,389.271 45.527 C 389.770 45.666,390.642 45.292,390.804 44.871 C 391.169 43.916,391.213 43.623,390.976 43.706 C 390.852 43.749,390.773 43.911,390.801 44.067 C 390.829 44.222,390.713 44.476,390.543 44.633 C 390.373 44.789,390.332 44.851,390.450 44.771 C 390.581 44.683,390.667 44.693,390.667 44.795 C 390.667 44.994,390.237 45.206,389.704 45.269 C 389.490 45.295,389.369 45.243,389.427 45.150 C 389.483 45.060,389.690 45.038,389.888 45.101 C 390.199 45.199,390.218 45.180,390.032 44.956 C 389.852 44.739,389.873 44.658,390.158 44.458 C 390.345 44.327,390.457 44.179,390.407 44.129 C 390.357 44.079,390.494 43.897,390.713 43.726 C 390.931 43.554,391.084 43.334,391.051 43.237 C 391.019 43.140,391.181 42.959,391.412 42.836 C 391.824 42.615,392.455 41.833,392.221 41.833 C 392.155 41.833,391.891 42.035,391.634 42.281 L 391.167 42.729 391.169 42.323 C 391.173 41.657,391.397 41.442,392.188 41.346 C 392.246 41.339,392.386 41.109,392.499 40.835 C 392.613 40.562,392.758 40.370,392.823 40.410 C 392.887 40.450,392.906 40.251,392.864 39.968 C 392.823 39.684,392.855 39.494,392.936 39.544 C 393.017 39.594,393.083 38.976,393.083 38.168 C 393.083 37.000,393.143 36.635,393.378 36.376 C 394.134 35.540,394.865 30.771,394.412 29.624 C 394.349 29.463,394.346 29.069,394.406 28.749 C 394.468 28.416,394.447 28.167,394.357 28.167 C 394.169 28.167,393.832 27.262,393.836 26.767 C 393.838 26.474,393.867 26.457,394.015 26.667 C 394.172 26.889,394.184 26.889,394.117 26.667 C 394.076 26.529,393.959 26.435,393.857 26.457 C 393.407 26.556,393.105 25.643,393.094 24.149 C 393.088 23.334,393.019 22.667,392.940 22.667 C 392.862 22.667,392.844 22.479,392.902 22.249 C 392.960 22.019,392.949 21.840,392.878 21.852 C 392.518 21.911,392.477 21.801,392.750 21.500 C 393.268 20.928,392.426 19.352,391.475 19.113 C 391.139 19.028,391.061 18.923,391.118 18.627 C 391.220 18.089,390.914 17.389,390.576 17.389 C 390.317 17.389,390.320 17.411,390.602 17.618 C 390.872 17.815,390.881 17.868,390.666 18.004 C 390.442 18.146,390.547 18.238,390.875 18.186 C 391.027 18.162,391.040 18.404,390.894 18.550 C 390.836 18.608,390.573 18.358,390.310 17.994 C 390.047 17.631,389.724 17.333,389.594 17.333 C 389.463 17.333,389.308 17.183,389.250 17.000 C 389.192 16.817,389.074 16.667,388.989 16.667 C 388.903 16.667,388.833 16.446,388.833 16.177 C 388.833 15.907,388.757 15.639,388.664 15.582 C 388.571 15.524,388.545 15.388,388.607 15.280 C 388.669 15.172,388.659 15.138,388.585 15.206 C 388.510 15.273,388.343 15.198,388.212 15.039 C 388.082 14.880,388.030 14.855,388.097 14.984 C 388.177 15.139,388.152 15.178,388.023 15.098 C 387.916 15.031,387.874 14.902,387.930 14.811 C 388.055 14.609,387.511 13.974,387.316 14.094 C 387.239 14.142,387.132 14.003,387.078 13.786 C 386.973 13.369,386.093 12.923,385.240 12.854 C 385.097 12.843,385.018 12.772,385.065 12.697 C 385.269 12.366,384.528 11.617,383.578 11.196 C 383.026 10.951,382.313 10.474,381.995 10.136 C 381.407 9.512,380.596 9.087,380.319 9.259 C 380.235 9.311,380.167 9.274,380.167 9.178 C 380.167 9.082,380.035 9.016,379.875 9.031 C 379.420 9.073,378.500 8.809,378.500 8.636 C 378.500 8.550,378.587 8.534,378.692 8.599 C 378.812 8.673,378.840 8.645,378.766 8.526 C 378.701 8.420,378.570 8.333,378.475 8.333 C 378.380 8.333,378.111 8.182,377.876 7.998 C 377.642 7.814,377.142 7.612,376.767 7.549 L 376.083 7.436 376.750 7.231 L 377.417 7.026 376.708 7.013 C 376.319 7.006,376.000 7.075,376.000 7.167 C 376.000 7.258,375.719 7.332,375.375 7.331 C 375.026 7.329,374.838 7.272,374.949 7.202 C 375.058 7.132,372.715 7.066,369.741 7.056 C 366.767 7.045,364.333 7.095,364.333 7.166 C 364.333 7.237,364.108 7.329,363.833 7.369 C 363.492 7.419,363.333 7.372,363.333 7.221 C 363.333 6.940,362.457 6.949,361.667 7.239 M377.833 7.333 C 378.403 7.516,378.841 7.516,378.417 7.333 C 378.233 7.255,377.933 7.192,377.750 7.195 C 377.482 7.199,377.498 7.226,377.833 7.333 M381.368 9.229 C 381.485 9.355,381.689 9.417,381.820 9.367 C 382.005 9.296,381.986 9.246,381.738 9.149 C 381.243 8.955,381.134 8.979,381.368 9.229 M357.000 9.486 C 357.000 9.570,357.090 9.669,357.200 9.706 C 357.356 9.758,357.356 9.800,357.200 9.896 C 357.090 9.964,357.000 9.940,357.000 9.843 C 357.000 9.746,356.925 9.667,356.833 9.667 C 356.742 9.667,356.667 9.773,356.667 9.902 C 356.667 10.140,357.055 10.167,357.278 9.944 C 357.500 9.722,357.473 9.333,357.235 9.333 C 357.106 9.333,357.000 9.402,357.000 9.486 M355.100 11.421 C 355.066 11.649,354.833 11.790,354.833 11.583 C 354.833 11.537,354.833 11.425,354.833 11.333 C 354.833 11.242,354.902 11.167,354.985 11.167 C 355.069 11.167,355.120 11.281,355.100 11.421 M387.083 13.226 C 387.267 13.371,387.342 13.492,387.250 13.495 C 387.158 13.499,387.327 13.650,387.625 13.832 C 387.923 14.013,388.167 14.235,388.167 14.325 C 388.167 14.415,388.314 14.567,388.494 14.663 C 389.076 14.975,388.370 13.955,387.680 13.488 C 386.976 13.011,386.607 12.849,387.083 13.226 M387.761 14.628 C 387.610 14.779,387.145 14.503,387.254 14.326 C 387.329 14.206,387.438 14.213,387.602 14.349 C 387.734 14.458,387.805 14.584,387.761 14.628 M350.923 15.058 C 350.721 15.206,350.679 15.321,350.800 15.396 C 350.901 15.458,351.065 15.357,351.164 15.171 C 351.377 14.774,351.337 14.755,350.923 15.058 M378.821 15.851 C 380.208 16.876,380.378 18.580,379.244 20.096 C 378.567 21.002,378.617 22.450,379.343 22.946 C 380.237 23.557,380.343 23.722,381.588 26.417 C 382.691 28.803,382.134 29.952,379.832 30.044 C 379.047 30.076,378.576 29.668,377.759 28.250 C 377.495 27.792,377.235 27.379,377.181 27.333 C 377.127 27.287,376.953 26.969,376.794 26.625 C 376.635 26.281,376.429 26.000,376.336 26.000 C 376.243 26.000,376.167 25.887,376.167 25.750 C 376.167 25.613,376.087 25.500,375.991 25.500 C 375.894 25.500,375.425 25.116,374.949 24.647 C 373.921 23.634,373.763 23.566,371.500 23.160 C 370.269 22.939,369.478 22.883,368.833 22.970 C 367.993 23.083,366.487 22.884,366.026 22.599 C 365.545 22.302,364.333 23.578,364.333 24.381 C 364.333 24.506,364.142 24.788,363.908 25.008 C 363.675 25.227,363.222 25.934,362.902 26.578 C 362.582 27.223,362.181 28.012,362.010 28.333 C 361.042 30.150,361.142 32.882,362.235 34.490 C 362.457 34.816,362.812 35.458,363.024 35.917 C 363.236 36.375,363.681 37.012,364.013 37.333 C 364.371 37.679,364.699 38.209,364.817 38.633 C 365.087 39.595,365.522 39.757,366.887 39.403 C 367.602 39.218,368.225 39.170,368.935 39.246 C 371.179 39.486,373.542 38.938,374.551 37.943 C 374.938 37.562,375.538 37.025,375.885 36.750 C 376.233 36.475,376.642 35.987,376.795 35.667 C 376.947 35.346,377.200 34.944,377.357 34.774 C 377.513 34.604,377.731 34.229,377.841 33.941 C 378.069 33.342,378.816 31.706,379.032 31.333 C 379.111 31.196,379.220 30.952,379.274 30.792 C 379.402 30.411,379.779 30.423,380.583 30.833 C 380.943 31.017,381.334 31.167,381.452 31.167 C 381.570 31.167,381.667 31.302,381.667 31.467 C 381.667 31.632,381.747 31.847,381.846 31.946 C 382.261 32.361,382.110 34.852,381.604 35.917 C 381.343 36.467,380.988 37.221,380.815 37.593 C 380.417 38.451,379.797 39.036,378.792 39.502 C 377.903 39.915,377.835 40.090,378.375 40.580 C 378.780 40.947,378.920 41.172,379.674 42.655 C 380.218 43.725,380.268 44.172,379.958 45.190 C 379.293 47.377,375.490 47.462,374.600 45.310 C 374.435 44.910,374.195 44.338,374.068 44.038 L 373.835 43.493 370.709 43.538 C 367.126 43.590,364.833 43.149,364.833 42.408 C 364.833 42.295,364.721 42.159,364.583 42.106 C 364.429 42.047,364.333 41.794,364.333 41.442 C 364.333 41.130,364.221 40.781,364.083 40.667 C 363.946 40.553,363.833 40.531,363.833 40.620 C 363.833 40.919,362.022 41.223,361.700 40.979 C 360.237 39.867,359.149 38.384,357.852 35.731 C 357.633 35.283,357.317 34.654,357.150 34.333 L 356.847 33.750 355.299 33.750 C 353.698 33.750,353.334 33.619,352.308 32.671 C 351.751 32.158,351.706 29.667,352.253 29.667 C 352.389 29.667,352.500 29.608,352.500 29.536 C 352.500 29.027,354.185 28.169,354.873 28.328 C 356.447 28.691,357.293 28.301,357.571 27.083 C 357.634 26.808,357.944 26.191,358.260 25.711 C 358.575 25.231,358.833 24.760,358.833 24.663 C 358.833 24.141,361.598 21.167,362.084 21.167 C 362.219 21.167,362.717 21.314,363.191 21.494 C 364.186 21.872,364.267 21.848,364.425 21.128 C 364.806 19.393,367.022 18.288,369.750 18.472 C 374.165 18.769,373.801 18.869,374.659 17.125 C 374.963 16.506,375.308 16.000,375.426 16.000 C 375.543 16.000,375.664 15.924,375.695 15.832 C 375.873 15.299,378.093 15.312,378.821 15.851 M349.125 17.180 C 348.965 17.273,348.833 17.430,348.833 17.529 C 348.833 17.653,348.902 17.650,349.057 17.522 C 349.180 17.420,349.342 17.392,349.417 17.460 C 349.492 17.528,349.503 17.496,349.442 17.389 C 349.381 17.282,349.425 17.157,349.541 17.111 C 349.656 17.064,349.675 17.023,349.583 17.018 C 349.492 17.014,349.285 17.087,349.125 17.180 M348.609 18.203 C 348.484 18.682,348.549 18.727,348.795 18.333 C 348.904 18.159,348.928 17.975,348.849 17.926 C 348.770 17.877,348.662 18.002,348.609 18.203 M391.667 19.550 C 392.209 19.996,392.606 20.565,392.297 20.452 C 392.140 20.395,391.959 20.431,391.896 20.533 C 391.830 20.641,391.857 20.672,391.963 20.606 C 392.062 20.545,392.191 20.572,392.250 20.667 C 392.309 20.761,392.418 20.800,392.494 20.754 C 392.720 20.614,392.861 21.207,392.648 21.403 C 392.501 21.538,392.477 21.509,392.554 21.292 C 392.627 21.082,392.570 21.000,392.349 21.000 C 392.179 21.000,391.947 20.887,391.833 20.750 C 391.719 20.612,391.531 20.500,391.416 20.500 C 391.284 20.500,391.212 20.283,391.221 19.917 C 391.238 19.282,391.290 19.240,391.667 19.550 M391.480 19.817 C 391.606 19.897,391.658 20.045,391.596 20.146 C 391.524 20.262,391.579 20.292,391.746 20.229 C 392.039 20.116,391.790 19.664,391.438 19.669 C 391.329 19.671,391.347 19.733,391.480 19.817 M393.833 24.818 C 393.833 24.896,393.946 25.053,394.083 25.167 C 394.221 25.281,394.333 25.487,394.333 25.624 C 394.333 25.827,394.287 25.835,394.083 25.667 C 393.884 25.501,393.833 25.501,393.833 25.667 C 393.833 25.824,393.763 25.819,393.542 25.645 C 393.278 25.438,393.272 25.444,393.477 25.706 C 393.602 25.866,393.771 25.955,393.853 25.904 C 393.935 25.854,394.050 25.936,394.108 26.087 C 394.188 26.295,394.244 26.311,394.343 26.151 C 394.427 26.015,394.515 26.163,394.590 26.561 C 394.654 26.903,394.660 27.229,394.603 27.286 C 394.547 27.342,394.495 27.170,394.489 26.903 C 394.479 26.421,394.477 26.420,394.318 26.820 C 394.212 27.084,394.214 27.259,394.322 27.327 C 394.584 27.488,394.886 30.578,394.790 32.111 C 394.743 32.876,394.770 33.500,394.852 33.500 C 394.933 33.500,395.000 32.300,395.000 30.833 C 395.000 29.083,394.940 28.167,394.825 28.167 C 394.710 28.167,394.689 27.824,394.764 27.160 C 394.853 26.374,394.814 26.011,394.585 25.503 C 394.319 24.914,393.833 24.471,393.833 24.818 M345.773 29.773 C 345.090 30.455,345.130 31.975,345.849 32.717 C 346.222 33.103,346.314 33.149,346.182 32.884 C 346.081 32.683,345.924 32.472,345.832 32.416 C 345.510 32.217,345.639 30.341,346.011 29.817 C 346.440 29.215,346.348 29.198,345.773 29.773 M357.935 31.053 C 357.805 32.493,357.983 33.156,358.327 32.512 C 358.459 32.266,358.487 31.843,358.409 31.277 C 358.200 29.752,358.059 29.686,357.935 31.053 M394.451 35.808 C 394.494 36.152,394.458 36.327,394.355 36.264 C 394.264 36.207,394.142 36.239,394.083 36.333 C 394.025 36.428,393.916 36.468,393.841 36.421 C 393.766 36.375,393.602 36.467,393.477 36.627 C 393.272 36.889,393.278 36.895,393.542 36.688 C 393.877 36.425,393.935 36.649,393.625 37.006 C 393.510 37.137,393.623 37.064,393.875 36.843 C 394.127 36.623,394.333 36.523,394.333 36.623 C 394.333 36.722,394.090 37.010,393.792 37.262 C 393.494 37.513,393.363 37.670,393.500 37.610 C 393.637 37.550,393.868 37.457,394.013 37.405 C 394.435 37.252,394.835 36.417,394.817 35.724 C 394.802 35.170,394.783 35.139,394.675 35.500 C 394.562 35.879,394.543 35.887,394.465 35.583 C 394.418 35.400,394.412 35.501,394.451 35.808 M392.419 41.271 C 392.261 41.511,392.215 41.657,392.316 41.594 C 392.417 41.531,392.502 41.579,392.505 41.698 C 392.512 41.984,393.000 41.346,393.000 41.051 C 393.000 40.698,392.726 40.801,392.419 41.271 M351.623 46.875 C 351.737 46.964,351.793 47.097,351.748 47.170 C 351.703 47.243,351.828 47.260,352.026 47.208 C 352.272 47.144,352.348 47.175,352.266 47.307 C 352.100 47.575,351.738 47.548,351.435 47.244 C 351.294 47.103,351.122 46.996,351.052 47.007 C 350.982 47.017,350.902 46.957,350.875 46.874 C 350.807 46.670,351.364 46.671,351.623 46.875 M353.000 48.333 C 352.753 48.493,352.944 48.588,353.375 48.520 C 353.444 48.509,353.491 48.556,353.480 48.625 C 353.412 49.056,353.507 49.247,353.667 49.000 C 353.764 48.850,353.829 48.829,353.831 48.948 C 353.832 49.058,353.774 49.184,353.700 49.229 C 353.549 49.322,353.131 49.101,353.152 48.940 C 353.160 48.881,353.119 48.840,353.060 48.848 C 352.899 48.869,352.678 48.451,352.771 48.300 C 352.816 48.226,352.942 48.168,353.052 48.169 C 353.171 48.171,353.150 48.236,353.000 48.333 M386.755 49.158 C 386.694 49.258,386.555 49.289,386.447 49.228 C 386.314 49.154,386.318 49.191,386.458 49.342 C 386.619 49.515,386.712 49.521,386.864 49.369 C 386.972 49.261,387.017 49.128,386.964 49.075 C 386.910 49.022,386.817 49.059,386.755 49.158 M385.000 49.996 C 385.000 50.115,384.869 50.321,384.708 50.452 C 384.548 50.584,384.510 50.644,384.625 50.586 C 384.740 50.528,384.833 50.560,384.833 50.657 C 384.833 50.812,384.624 50.895,384.319 50.862 C 384.266 50.857,384.222 50.960,384.222 51.093 C 384.222 51.406,384.411 51.398,384.738 51.072 C 385.033 50.776,385.260 50.038,385.103 49.881 C 385.047 49.824,385.000 49.876,385.000 49.996 M358.772 53.254 C 359.134 53.528,359.500 53.571,359.500 53.339 C 359.500 53.250,359.375 53.225,359.223 53.284 C 359.064 53.345,358.988 53.322,359.044 53.230 C 359.099 53.141,358.990 53.058,358.802 53.043 C 358.472 53.019,358.471 53.026,358.772 53.254 M362.703 54.167 C 363.065 54.792,364.423 55.482,364.702 55.182 C 364.880 54.990,364.867 54.968,364.628 55.053 C 364.317 55.162,363.918 54.648,364.131 54.412 C 364.196 54.339,364.161 54.331,364.053 54.393 C 363.945 54.455,363.809 54.429,363.752 54.336 C 363.694 54.243,363.558 54.168,363.448 54.170 C 363.339 54.172,363.438 54.324,363.667 54.506 L 364.083 54.839 363.608 54.667 C 363.347 54.573,362.982 54.328,362.798 54.123 L 362.462 53.750 362.703 54.167 M376.745 54.114 C 376.644 54.444,375.713 55.039,375.385 54.983 C 374.958 54.911,374.755 55.013,375.019 55.167 C 375.531 55.466,377.146 54.456,376.944 53.964 C 376.888 53.827,376.816 53.882,376.745 54.114 " stroke="none" fill="#d28e4f" fill-rule="evenodd"></path><path id="path1" d="M376.501 15.512 C 376.088 15.595,375.726 15.739,375.695 15.832 C 375.664 15.924,375.543 16.000,375.426 16.000 C 375.308 16.000,374.963 16.506,374.659 17.125 C 373.801 18.869,374.165 18.769,369.750 18.472 C 367.022 18.288,364.806 19.393,364.425 21.128 C 364.267 21.848,364.186 21.872,363.191 21.494 C 362.717 21.314,362.219 21.167,362.084 21.167 C 361.598 21.167,358.833 24.141,358.833 24.663 C 358.833 24.760,358.575 25.231,358.260 25.711 C 357.944 26.191,357.634 26.808,357.571 27.083 C 357.293 28.301,356.447 28.691,354.873 28.328 C 354.185 28.169,352.500 29.027,352.500 29.536 C 352.500 29.608,352.389 29.667,352.253 29.667 C 351.706 29.667,351.751 32.158,352.308 32.671 C 353.334 33.619,353.698 33.750,355.299 33.750 L 356.847 33.750 357.150 34.333 C 357.317 34.654,357.633 35.283,357.852 35.731 C 359.149 38.384,360.237 39.867,361.700 40.979 C 362.022 41.223,363.833 40.919,363.833 40.620 C 363.833 40.531,363.946 40.553,364.083 40.667 C 364.221 40.781,364.333 41.130,364.333 41.442 C 364.333 41.794,364.429 42.047,364.583 42.106 C 364.721 42.159,364.833 42.295,364.833 42.408 C 364.833 43.149,367.126 43.590,370.709 43.538 L 373.835 43.493 374.068 44.038 C 374.195 44.338,374.435 44.910,374.600 45.310 C 375.490 47.462,379.293 47.377,379.958 45.190 C 380.268 44.172,380.218 43.725,379.674 42.655 C 378.920 41.172,378.780 40.947,378.375 40.580 C 377.835 40.090,377.903 39.915,378.792 39.502 C 379.797 39.036,380.417 38.451,380.815 37.593 C 380.988 37.221,381.343 36.467,381.604 35.917 C 382.110 34.852,382.261 32.361,381.846 31.946 C 381.747 31.847,381.667 31.632,381.667 31.467 C 381.667 31.302,381.570 31.167,381.452 31.167 C 381.334 31.167,380.943 31.017,380.583 30.833 C 379.779 30.423,379.402 30.411,379.274 30.792 C 379.220 30.952,379.111 31.196,379.032 31.333 C 378.816 31.706,378.069 33.342,377.841 33.941 C 377.731 34.229,377.513 34.604,377.357 34.774 C 377.200 34.944,376.947 35.346,376.795 35.667 C 376.642 35.987,376.233 36.475,375.885 36.750 C 375.538 37.025,374.938 37.562,374.551 37.943 C 373.542 38.938,371.179 39.486,368.935 39.246 C 368.225 39.170,367.602 39.218,366.887 39.403 C 365.522 39.757,365.087 39.595,364.817 38.633 C 364.699 38.209,364.371 37.679,364.013 37.333 C 363.681 37.012,363.236 36.375,363.024 35.917 C 362.812 35.458,362.457 34.816,362.235 34.490 C 361.142 32.882,361.042 30.150,362.010 28.333 C 362.181 28.012,362.582 27.223,362.902 26.578 C 363.222 25.934,363.675 25.227,363.908 25.008 C 364.142 24.788,364.333 24.506,364.333 24.381 C 364.333 23.578,365.545 22.302,366.026 22.599 C 366.487 22.884,367.993 23.083,368.833 22.970 C 369.478 22.883,370.269 22.939,371.500 23.160 C 373.763 23.566,373.921 23.634,374.949 24.647 C 375.425 25.116,375.894 25.500,375.991 25.500 C 376.087 25.500,376.167 25.613,376.167 25.750 C 376.167 25.887,376.243 26.000,376.336 26.000 C 376.429 26.000,376.635 26.281,376.794 26.625 C 376.953 26.969,377.127 27.287,377.181 27.333 C 377.235 27.379,377.495 27.792,377.759 28.250 C 378.576 29.668,379.047 30.076,379.832 30.044 C 382.134 29.952,382.691 28.803,381.588 26.417 C 380.343 23.722,380.237 23.557,379.343 22.946 C 378.617 22.450,378.567 21.002,379.244 20.096 C 380.038 19.035,380.201 18.542,379.984 17.868 C 379.311 15.776,378.362 15.135,376.501 15.512 M358.409 31.277 C 358.487 31.843,358.459 32.266,358.327 32.512 C 357.983 33.156,357.805 32.493,357.935 31.053 C 358.059 29.686,358.200 29.752,358.409 31.277 " stroke="none" fill="#efdecd" fill-rule="evenodd"></path><path id="path2" d="M73.417 1.499 C 72.775 1.563,72.063 1.697,71.833 1.796 C 71.604 1.896,71.224 2.018,70.988 2.068 C 70.752 2.117,70.280 2.348,69.939 2.579 C 69.573 2.827,69.083 3.000,68.746 3.000 C 67.669 3.000,66.416 3.778,65.974 4.722 L 65.583 5.556 65.583 46.433 L 65.583 87.309 65.934 87.779 C 66.127 88.038,66.427 88.273,66.601 88.301 C 67.335 88.420,67.809 88.716,67.910 89.118 C 68.142 90.041,69.382 90.493,71.700 90.497 C 72.848 90.500,73.061 90.553,73.724 91.000 C 74.132 91.275,74.589 91.500,74.741 91.500 C 74.892 91.500,75.219 91.603,75.467 91.729 C 76.101 92.053,78.772 92.333,81.213 92.333 C 84.321 92.333,84.833 92.431,84.833 93.023 L 84.833 93.500 87.833 93.500 L 90.833 93.500 90.833 93.023 C 90.833 92.414,91.365 92.337,95.583 92.335 C 99.693 92.332,101.615 91.947,102.250 90.999 C 102.555 90.543,102.665 90.501,103.533 90.500 C 105.469 90.500,107.196 89.882,107.500 89.083 C 107.614 88.783,107.858 88.668,108.730 88.504 C 109.689 88.323,109.931 88.193,110.784 87.401 C 112.084 86.194,112.183 86.115,112.719 85.875 C 112.984 85.756,113.259 85.450,113.358 85.166 C 113.454 84.891,113.610 84.667,113.706 84.667 C 113.801 84.667,114.054 84.498,114.268 84.292 C 115.418 83.186,116.167 82.340,116.167 82.147 C 116.167 82.058,116.579 81.583,117.083 81.090 C 117.922 80.272,118.000 80.133,118.000 79.456 C 118.000 78.755,118.032 78.705,118.636 78.468 C 119.442 78.151,119.789 77.452,119.939 75.842 C 120.046 74.689,120.074 74.626,120.594 74.378 C 121.571 73.912,121.997 72.304,121.999 69.078 L 122.000 67.240 122.482 67.058 C 123.573 66.646,123.958 64.403,123.763 59.583 C 123.587 55.239,123.280 54.168,122.208 54.167 C 122.055 54.167,122.000 53.707,122.000 52.423 C 122.000 51.465,121.917 50.123,121.816 49.442 L 121.632 48.204 120.858 47.957 L 120.083 47.711 119.966 46.091 C 119.832 44.225,119.726 44.036,118.779 43.967 L 118.083 43.917 117.995 42.439 C 117.898 40.826,117.653 40.422,116.647 40.221 C 116.262 40.144,116.172 40.020,116.077 39.440 C 115.923 38.501,115.590 38.167,114.808 38.167 C 114.246 38.167,114.167 38.118,114.167 37.775 C 114.167 36.765,113.850 36.347,112.998 36.234 L 112.193 36.127 112.082 35.325 C 111.966 34.477,111.558 34.167,110.558 34.167 C 110.233 34.167,110.167 34.081,110.167 33.659 C 110.167 32.850,109.527 32.333,108.524 32.333 C 107.774 32.333,107.685 32.292,107.539 31.874 C 107.451 31.621,107.162 31.302,106.898 31.165 C 106.633 31.029,106.331 30.806,106.225 30.672 C 106.085 30.492,105.564 30.409,104.267 30.361 L 102.500 30.296 102.500 29.807 C 102.500 28.409,101.993 28.326,93.333 28.308 C 85.251 28.291,84.174 28.456,83.651 29.789 C 83.489 30.204,83.344 30.335,83.091 30.299 C 82.752 30.250,82.750 30.191,82.667 17.144 L 82.583 4.037 82.167 3.691 C 81.938 3.500,81.600 3.340,81.417 3.334 C 81.047 3.322,80.500 2.962,80.500 2.732 C 80.498 1.554,77.714 1.069,73.417 1.499 M367.837 5.659 C 367.220 5.816,366.667 6.360,366.667 6.810 C 366.666 7.054,367.007 7.083,369.792 7.083 C 371.510 7.083,373.610 7.142,374.458 7.214 C 375.398 7.294,376.000 7.284,376.000 7.189 C 376.000 7.104,375.534 7.033,374.964 7.033 C 374.067 7.033,373.883 6.979,373.589 6.623 C 372.803 5.671,369.777 5.164,367.837 5.659 M372.167 6.167 C 372.594 6.501,372.392 6.623,371.873 6.345 C 371.714 6.259,371.171 6.119,370.667 6.033 L 369.750 5.877 370.750 5.859 C 371.509 5.845,371.850 5.919,372.167 6.167 M361.100 7.247 C 360.354 7.512,360.173 7.732,360.169 8.375 C 360.167 8.858,360.025 8.910,358.925 8.835 C 358.484 8.805,358.457 8.830,358.661 9.077 C 358.979 9.460,361.167 9.026,361.167 8.580 C 361.167 8.333,362.504 7.500,362.900 7.500 C 363.410 7.500,363.004 7.221,362.333 7.111 C 362.005 7.057,361.466 7.116,361.100 7.247 M363.333 7.221 C 363.333 7.372,363.492 7.419,363.833 7.369 C 364.108 7.329,364.333 7.229,364.333 7.148 C 364.333 7.066,364.108 7.000,363.833 7.000 C 363.529 7.000,363.333 7.087,363.333 7.221 M365.542 7.115 C 365.702 7.157,365.965 7.157,366.125 7.115 C 366.285 7.073,366.154 7.039,365.833 7.039 C 365.512 7.039,365.381 7.073,365.542 7.115 M376.750 7.231 L 376.083 7.436 376.767 7.549 C 377.142 7.612,377.642 7.814,377.876 7.998 C 378.111 8.182,378.380 8.333,378.475 8.333 C 378.570 8.333,378.701 8.420,378.766 8.526 C 378.840 8.645,378.812 8.673,378.692 8.599 C 378.587 8.534,378.500 8.550,378.500 8.636 C 378.500 8.809,379.420 9.073,379.875 9.031 C 380.035 9.016,380.167 9.082,380.167 9.178 C 380.167 9.274,380.235 9.311,380.319 9.259 C 380.596 9.087,381.407 9.512,381.995 10.136 C 382.313 10.474,383.026 10.951,383.578 11.196 C 384.528 11.617,385.269 12.366,385.065 12.697 C 385.018 12.772,385.097 12.843,385.240 12.854 C 386.093 12.923,386.973 13.369,387.078 13.786 C 387.132 14.003,387.239 14.142,387.316 14.094 C 387.511 13.974,388.055 14.609,387.930 14.811 C 387.874 14.902,387.916 15.031,388.023 15.098 C 388.154 15.178,388.176 15.141,388.091 14.984 C 388.021 14.855,388.156 14.975,388.392 15.250 C 388.628 15.525,388.824 15.956,388.827 16.208 C 388.831 16.460,388.903 16.667,388.989 16.667 C 389.074 16.667,389.192 16.817,389.250 17.000 C 389.308 17.183,389.463 17.333,389.594 17.333 C 389.724 17.333,390.047 17.631,390.310 17.994 C 390.573 18.358,390.836 18.608,390.894 18.550 C 391.040 18.404,391.027 18.162,390.875 18.186 C 390.547 18.238,390.442 18.146,390.666 18.004 C 390.880 17.869,390.868 17.811,390.583 17.596 C 390.257 17.351,390.258 17.347,390.636 17.416 C 390.889 17.461,390.997 17.416,390.949 17.284 C 390.908 17.174,390.785 17.104,390.675 17.129 C 390.565 17.154,390.523 17.097,390.582 17.002 C 390.641 16.907,390.402 16.549,390.051 16.206 C 389.700 15.864,389.320 15.373,389.206 15.116 C 389.092 14.858,388.928 14.691,388.842 14.745 C 388.756 14.798,388.421 14.577,388.098 14.254 C 387.775 13.931,387.429 13.667,387.329 13.667 C 387.229 13.667,387.194 13.590,387.252 13.497 C 387.407 13.246,388.267 13.809,388.508 14.319 C 388.638 14.597,388.739 14.671,388.790 14.528 C 388.881 14.277,388.046 13.333,387.734 13.333 C 387.492 13.333,386.731 12.464,386.593 12.031 C 386.513 11.779,386.007 11.438,385.102 11.024 C 385.020 10.987,385.007 11.060,385.072 11.187 C 385.138 11.313,385.088 11.291,384.961 11.137 C 384.834 10.983,384.435 10.833,384.074 10.804 C 383.467 10.754,383.413 10.708,383.364 10.208 C 383.311 9.657,383.105 9.498,382.932 9.875 C 382.879 9.990,382.876 9.923,382.923 9.728 C 383.029 9.297,382.354 9.054,381.830 9.335 C 381.634 9.440,381.500 9.447,381.500 9.353 C 381.500 9.266,381.594 9.151,381.708 9.099 C 381.823 9.046,381.748 9.045,381.542 9.096 C 381.320 9.151,381.167 9.113,381.167 9.001 C 381.167 8.898,381.092 8.860,381.001 8.916 C 380.910 8.972,380.460 8.643,380.001 8.184 C 378.880 7.063,378.069 6.825,376.750 7.231 M362.281 7.297 C 362.389 7.366,362.164 7.430,361.781 7.439 C 361.279 7.451,361.177 7.418,361.417 7.323 C 361.851 7.150,362.040 7.144,362.281 7.297 M378.417 7.333 C 378.841 7.516,378.403 7.516,377.833 7.333 C 377.498 7.226,377.482 7.199,377.750 7.195 C 377.933 7.192,378.233 7.255,378.417 7.333 M358.143 9.148 C 358.267 9.227,358.301 9.334,358.218 9.385 C 358.135 9.436,357.958 9.409,357.825 9.325 C 357.456 9.091,357.346 9.135,357.415 9.489 C 357.488 9.871,357.200 10.143,356.792 10.077 C 356.434 10.019,356.422 10.169,356.750 10.593 C 356.997 10.912,356.999 10.912,356.893 10.583 C 356.809 10.326,356.831 10.293,356.989 10.439 C 357.289 10.715,358.009 10.013,357.761 9.684 C 357.620 9.497,357.658 9.475,357.958 9.570 C 358.456 9.728,358.745 9.545,358.488 9.235 C 358.380 9.106,358.208 9.001,358.105 9.003 C 357.994 9.004,358.009 9.064,358.143 9.148 M356.776 9.460 C 356.735 9.528,356.802 9.676,356.925 9.790 C 357.048 9.904,357.183 9.941,357.224 9.873 C 357.265 9.806,357.198 9.657,357.075 9.543 C 356.952 9.430,356.817 9.392,356.776 9.460 M253.083 10.982 C 251.806 11.048,250.746 11.186,250.500 11.318 C 249.980 11.596,249.333 12.312,249.333 12.609 C 249.333 12.769,249.077 12.833,248.442 12.833 C 247.374 12.833,247.000 13.150,247.000 14.055 C 247.000 14.481,246.926 14.667,246.756 14.667 C 246.394 14.667,245.532 15.574,245.381 16.113 C 245.119 17.054,245.223 72.489,245.488 73.405 C 245.725 74.221,245.986 74.580,246.598 74.934 C 246.890 75.103,246.924 75.393,247.000 78.351 C 247.090 81.848,247.256 82.497,248.061 82.503 C 248.644 82.507,248.783 82.704,248.872 83.660 C 248.919 84.160,249.042 84.597,249.146 84.632 C 249.249 84.666,249.333 84.872,249.333 85.089 C 249.333 85.460,249.817 85.920,250.741 86.430 C 250.920 86.528,251.122 86.819,251.191 87.076 C 251.361 87.712,251.977 88.333,252.436 88.333 C 252.644 88.333,252.860 88.408,252.917 88.500 C 252.973 88.592,253.149 88.667,253.306 88.667 C 253.464 88.667,253.712 88.798,253.859 88.958 C 254.920 90.120,255.661 90.500,256.869 90.500 C 257.365 90.500,257.564 90.600,257.858 90.997 C 258.731 92.179,260.610 92.392,269.167 92.277 C 278.154 92.156,279.174 92.027,279.896 90.925 C 280.115 90.591,280.312 90.500,280.817 90.500 C 281.898 90.500,281.910 90.451,281.971 85.746 C 282.021 81.813,281.883 79.816,281.535 79.469 C 281.171 79.105,279.068 79.001,271.975 78.997 L 264.322 78.992 264.161 78.538 C 263.879 77.743,263.731 77.587,263.104 77.428 C 262.541 77.285,262.470 77.197,262.223 76.345 C 261.956 75.421,261.256 74.368,260.893 74.345 C 260.518 74.322,260.500 73.616,260.500 58.736 L 260.500 43.667 269.375 43.663 C 279.415 43.659,279.385 43.662,279.897 42.438 C 280.116 41.913,280.215 41.848,280.862 41.802 C 281.885 41.728,281.970 41.292,281.987 36.019 C 282.005 30.179,282.080 30.333,279.211 30.333 C 278.601 30.333,278.156 30.233,277.859 30.028 C 276.625 29.175,276.534 29.167,268.247 29.167 L 260.500 29.167 260.500 21.939 C 260.500 10.429,260.608 10.589,253.083 10.982 M355.667 10.973 C 355.667 11.050,355.439 11.100,355.160 11.083 C 354.591 11.049,354.434 11.212,354.398 11.870 C 354.352 12.707,354.225 12.833,353.432 12.833 C 353.022 12.833,352.633 12.920,352.567 13.026 C 352.489 13.152,352.529 13.177,352.683 13.097 C 352.811 13.030,352.780 13.087,352.612 13.224 C 352.445 13.360,352.322 13.610,352.340 13.778 C 352.419 14.530,352.339 14.667,351.822 14.667 C 351.216 14.667,350.617 14.952,350.755 15.175 C 350.809 15.262,350.781 15.333,350.692 15.333 C 350.604 15.333,350.570 15.483,350.618 15.667 C 350.667 15.853,350.623 16.000,350.519 16.000 C 350.417 16.000,350.333 16.112,350.333 16.250 C 350.333 16.387,350.408 16.500,350.500 16.500 C 350.592 16.500,350.667 16.398,350.667 16.274 C 350.667 15.881,351.463 15.167,351.902 15.167 C 352.245 15.167,352.351 15.053,352.490 14.537 C 352.735 13.628,352.982 13.366,353.900 13.038 C 354.737 12.739,355.055 12.218,354.678 11.764 C 354.577 11.642,354.578 11.484,354.683 11.328 C 354.826 11.115,354.841 11.115,354.800 11.333 C 354.774 11.471,354.827 11.602,354.918 11.625 C 355.009 11.648,355.083 11.598,355.083 11.514 C 355.083 11.430,355.152 11.299,355.235 11.222 C 355.325 11.140,355.332 11.178,355.254 11.313 C 355.160 11.475,355.189 11.512,355.352 11.438 C 355.479 11.381,355.715 11.287,355.875 11.231 C 356.232 11.105,356.260 10.833,355.917 10.833 C 355.779 10.833,355.667 10.896,355.667 10.973 M387.254 14.326 C 387.194 14.423,387.266 14.549,387.413 14.605 C 387.780 14.746,387.894 14.591,387.602 14.349 C 387.438 14.213,387.329 14.206,387.254 14.326 M350.333 16.818 C 350.333 16.901,350.183 16.930,350.000 16.882 C 349.805 16.831,349.667 16.877,349.667 16.992 C 349.667 17.110,349.539 17.149,349.347 17.088 C 349.172 17.032,348.980 17.064,348.922 17.158 C 348.861 17.257,348.918 17.291,349.058 17.237 C 349.191 17.186,349.356 17.236,349.426 17.348 C 349.503 17.473,349.482 17.509,349.371 17.440 C 349.271 17.378,349.142 17.405,349.083 17.500 C 349.025 17.595,348.913 17.632,348.834 17.584 C 348.646 17.467,348.445 18.110,348.594 18.350 C 348.657 18.453,348.606 18.603,348.480 18.683 C 348.290 18.803,348.294 18.827,348.500 18.819 C 348.840 18.807,349.371 18.589,349.304 18.489 C 349.231 18.380,349.880 17.566,350.061 17.540 C 350.265 17.511,350.680 16.667,350.490 16.667 C 350.404 16.667,350.333 16.735,350.333 16.818 M391.221 19.917 C 391.212 20.283,391.284 20.500,391.416 20.500 C 391.531 20.500,391.719 20.612,391.833 20.750 C 391.947 20.887,392.179 21.000,392.349 21.000 C 392.567 21.000,392.625 21.080,392.550 21.277 C 392.470 21.485,392.503 21.519,392.680 21.412 C 392.878 21.293,392.881 21.313,392.700 21.537 C 392.566 21.702,392.546 21.842,392.647 21.905 C 392.737 21.960,392.860 21.925,392.921 21.826 C 393.061 21.601,392.676 20.641,392.492 20.755 C 392.417 20.801,392.309 20.761,392.250 20.667 C 392.191 20.572,392.062 20.545,391.963 20.606 C 391.857 20.672,391.830 20.641,391.896 20.533 C 391.959 20.431,392.140 20.395,392.297 20.452 C 392.606 20.565,392.209 19.996,391.667 19.550 C 391.290 19.240,391.238 19.282,391.221 19.917 M391.817 19.897 C 391.965 20.075,391.949 20.151,391.746 20.229 C 391.579 20.292,391.524 20.262,391.596 20.146 C 391.658 20.045,391.606 19.897,391.480 19.817 C 391.347 19.733,391.329 19.671,391.438 19.669 C 391.541 19.668,391.712 19.770,391.817 19.897 M392.512 19.917 C 392.512 20.008,392.619 20.271,392.750 20.500 C 392.881 20.729,392.988 20.842,392.988 20.750 C 392.988 20.658,392.881 20.396,392.750 20.167 C 392.619 19.938,392.512 19.825,392.512 19.917 M347.877 20.782 C 348.039 20.824,348.128 20.928,348.075 21.013 C 348.019 21.104,347.831 21.088,347.615 20.973 C 347.281 20.795,347.270 20.803,347.487 21.065 C 347.683 21.303,347.684 21.343,347.494 21.301 C 347.368 21.273,347.262 21.346,347.258 21.464 C 347.253 21.582,347.173 21.732,347.080 21.798 C 346.824 21.977,346.482 22.836,346.595 23.018 C 346.684 23.163,347.417 22.396,347.417 22.157 C 347.417 22.101,347.635 21.867,347.903 21.637 C 348.427 21.186,348.415 20.651,347.880 20.686 C 347.599 20.704,347.599 20.709,347.877 20.782 M392.833 22.417 C 392.833 22.554,392.908 22.667,393.000 22.667 C 393.092 22.667,393.167 22.554,393.167 22.417 C 393.167 22.279,393.092 22.167,393.000 22.167 C 392.908 22.167,392.833 22.279,392.833 22.417 M393.075 24.310 C 393.152 25.690,393.463 26.544,393.857 26.457 C 393.959 26.435,394.076 26.529,394.117 26.667 C 394.184 26.889,394.172 26.889,394.015 26.667 C 393.867 26.457,393.838 26.474,393.836 26.767 C 393.832 27.262,394.169 28.167,394.357 28.167 C 394.447 28.167,394.468 28.416,394.406 28.749 C 394.346 29.069,394.349 29.463,394.412 29.624 C 394.852 30.740,394.138 35.537,393.411 36.339 C 393.240 36.528,393.129 37.050,393.086 37.855 C 393.051 38.531,393.060 38.873,393.106 38.617 C 393.164 38.296,393.362 38.068,393.737 37.889 C 394.236 37.651,394.965 36.743,394.794 36.572 C 394.755 36.533,394.626 36.682,394.507 36.903 C 394.389 37.124,394.170 37.349,394.021 37.403 C 393.872 37.456,393.637 37.550,393.500 37.610 C 393.363 37.670,393.494 37.513,393.792 37.262 C 394.090 37.010,394.333 36.722,394.333 36.623 C 394.333 36.523,394.127 36.623,393.875 36.843 C 393.623 37.064,393.510 37.137,393.625 37.006 C 393.935 36.649,393.877 36.425,393.542 36.688 C 393.278 36.895,393.272 36.889,393.477 36.627 C 393.602 36.467,393.766 36.375,393.841 36.421 C 393.916 36.468,394.025 36.428,394.083 36.333 C 394.142 36.239,394.256 36.202,394.336 36.252 C 394.417 36.302,394.533 36.078,394.593 35.755 C 394.654 35.431,394.770 35.167,394.852 35.167 C 394.933 35.167,395.000 34.792,395.000 34.333 C 395.000 33.875,394.944 33.500,394.875 33.500 C 394.806 33.499,394.744 32.299,394.736 30.833 C 394.728 29.366,394.785 28.167,394.861 28.167 C 394.937 28.167,395.000 27.979,395.000 27.750 C 395.000 27.521,394.935 27.333,394.855 27.333 C 394.775 27.333,394.659 27.016,394.597 26.628 C 394.523 26.167,394.437 25.999,394.348 26.142 C 394.242 26.315,394.191 26.303,394.108 26.087 C 394.050 25.936,393.935 25.854,393.853 25.904 C 393.771 25.955,393.602 25.866,393.477 25.706 C 393.272 25.444,393.278 25.438,393.542 25.645 C 393.763 25.819,393.833 25.824,393.833 25.667 C 393.833 25.501,393.884 25.501,394.083 25.667 C 394.287 25.835,394.333 25.827,394.333 25.624 C 394.333 25.487,394.221 25.281,394.083 25.167 C 393.768 24.905,393.758 24.648,394.068 24.767 C 394.197 24.817,394.399 25.090,394.517 25.374 C 394.635 25.658,394.758 25.808,394.792 25.708 C 394.907 25.362,393.875 23.667,393.549 23.667 C 393.458 23.667,393.297 23.498,393.190 23.292 C 393.033 22.988,393.011 23.181,393.075 24.310 M394.608 27.995 C 394.570 28.135,394.530 28.050,394.519 27.806 C 394.509 27.561,394.427 27.336,394.338 27.306 C 394.248 27.275,394.225 27.063,394.287 26.833 C 394.388 26.452,394.410 26.473,394.537 27.079 C 394.614 27.443,394.646 27.855,394.608 27.995 M346.042 28.491 C 345.835 28.663,345.667 28.879,345.667 28.971 C 345.667 29.063,345.573 29.170,345.458 29.208 C 344.937 29.382,345.089 32.679,345.654 33.458 C 346.457 34.564,346.500 34.447,346.500 31.167 C 346.500 29.517,346.481 28.169,346.458 28.172 C 346.435 28.175,346.248 28.319,346.042 28.491 M202.369 28.506 C 200.631 28.689,200.498 28.740,199.667 29.556 L 198.917 30.292 195.307 30.367 C 191.009 30.455,190.897 30.491,190.594 31.875 C 190.503 32.290,190.425 32.333,189.760 32.333 C 188.839 32.333,188.500 32.461,188.500 32.809 C 188.499 32.960,188.290 33.223,188.035 33.394 C 186.837 34.196,186.917 32.217,186.917 61.333 C 186.917 90.546,186.805 87.841,188.042 88.579 C 188.393 88.789,188.500 88.980,188.500 89.400 C 188.500 90.077,188.933 90.500,189.626 90.500 C 189.996 90.500,190.252 90.637,190.530 90.985 C 191.714 92.468,199.637 92.485,200.794 91.007 C 201.012 90.728,201.340 90.500,201.522 90.500 C 201.704 90.500,202.167 90.421,202.552 90.324 C 203.846 89.998,203.745 91.936,203.794 66.477 L 203.838 43.704 204.544 43.599 C 204.932 43.542,206.225 43.388,207.417 43.257 C 209.540 43.023,210.704 42.727,211.395 42.242 C 211.789 41.967,213.833 41.901,213.833 42.164 C 213.833 42.792,216.824 43.668,218.966 43.667 C 219.824 43.667,220.667 44.178,220.667 44.700 C 220.667 44.783,220.892 44.929,221.167 45.025 C 221.442 45.121,221.667 45.307,221.667 45.438 C 221.667 45.570,221.773 45.718,221.904 45.768 C 222.034 45.818,222.252 46.135,222.389 46.471 C 222.525 46.808,222.791 47.246,222.980 47.446 C 223.322 47.807,223.323 47.885,223.376 67.863 C 223.439 91.919,223.302 90.500,225.560 90.500 C 226.025 90.500,226.149 90.575,226.232 90.906 C 226.488 91.923,226.986 92.036,230.879 91.957 C 234.757 91.878,235.412 91.751,235.928 90.982 C 236.139 90.667,236.394 90.500,236.667 90.500 C 237.476 90.497,238.300 90.160,238.608 89.705 C 238.904 89.268,238.917 88.423,238.917 68.417 C 238.917 44.812,239.022 46.612,237.618 46.280 L 237.000 46.134 237.000 43.741 C 237.000 40.774,236.744 40.167,235.492 40.167 C 235.213 40.167,235.167 40.049,235.167 39.331 C 235.167 38.871,235.100 38.365,235.020 38.206 C 234.939 38.047,234.807 37.692,234.728 37.417 C 234.622 37.050,234.373 36.812,233.792 36.524 C 233.114 36.188,233.000 36.060,233.000 35.638 C 233.000 34.830,232.738 34.531,231.922 34.409 C 231.358 34.324,231.152 34.211,231.074 33.940 C 230.689 32.614,230.197 32.333,228.261 32.333 L 227.337 32.333 227.231 31.670 C 227.045 30.508,226.959 30.464,224.678 30.370 L 222.634 30.286 221.850 29.468 C 221.130 28.718,220.977 28.638,219.991 28.495 C 218.723 28.312,204.132 28.321,202.369 28.506 M9.943 29.585 C 9.499 29.805,9.049 30.054,8.943 30.139 C 8.837 30.223,8.337 30.326,7.833 30.367 C 6.595 30.467,5.755 30.893,5.424 31.590 C 5.038 32.405,5.114 72.518,5.504 73.582 C 5.753 74.262,6.033 74.608,6.598 74.934 C 6.866 75.088,6.933 75.382,7.018 76.767 C 7.151 78.943,7.762 80.333,8.584 80.333 C 8.726 80.333,8.858 80.581,8.919 80.958 C 9.122 82.225,9.195 82.374,9.987 83.153 C 10.431 83.590,10.880 84.110,10.986 84.307 C 11.092 84.505,11.260 84.667,11.359 84.667 C 11.577 84.667,12.833 85.936,12.833 86.157 C 12.833 86.244,12.965 86.412,13.125 86.532 C 13.285 86.652,13.529 86.966,13.665 87.231 C 13.802 87.496,14.121 87.784,14.374 87.872 C 14.626 87.960,14.833 88.094,14.833 88.170 C 14.833 88.303,15.075 88.367,16.375 88.580 C 16.719 88.636,17.000 88.761,17.000 88.857 C 17.000 89.740,18.608 90.500,20.475 90.500 C 21.396 90.500,21.504 90.539,21.752 90.958 C 22.288 91.865,24.077 92.323,27.102 92.330 C 29.641 92.336,30.167 92.454,30.167 93.023 L 30.167 93.500 33.167 93.500 L 36.167 93.500 36.167 93.000 C 36.167 92.388,35.453 92.489,41.000 92.312 C 47.980 92.089,48.955 91.937,49.600 90.973 C 49.916 90.503,49.923 90.501,51.750 90.500 C 54.433 90.497,55.363 90.170,55.587 89.149 C 55.675 88.749,55.778 88.667,56.187 88.667 C 56.490 88.667,56.840 88.508,57.091 88.258 L 57.500 87.848 57.500 59.456 C 57.500 36.888,57.457 31.005,57.290 30.777 C 57.129 30.556,56.733 30.468,55.582 30.396 C 54.339 30.319,53.879 30.207,52.885 29.735 L 51.687 29.167 48.784 29.167 L 45.880 29.167 45.320 29.739 C 44.885 30.185,44.574 30.337,43.922 30.425 C 41.916 30.696,42.099 28.270,42.037 55.351 L 41.984 78.785 40.466 78.892 C 39.632 78.952,36.485 79.000,33.474 79.000 L 28.000 79.000 28.000 78.609 C 28.000 78.071,27.522 77.568,26.877 77.426 C 26.580 77.361,26.294 77.238,26.242 77.154 C 26.190 77.069,25.739 77.000,25.240 77.000 L 24.333 77.000 24.333 76.175 C 24.333 75.695,24.246 75.294,24.124 75.217 C 24.009 75.143,23.705 74.802,23.449 74.458 C 23.193 74.115,22.880 73.833,22.754 73.833 C 22.381 73.833,22.338 72.119,22.199 51.750 C 22.054 30.537,22.118 31.635,21.004 31.142 C 20.727 31.019,20.500 30.832,20.500 30.727 C 20.500 30.473,20.104 30.333,19.387 30.333 C 19.065 30.333,18.602 30.197,18.359 30.030 C 16.899 29.028,11.627 28.749,9.943 29.585 M130.891 29.587 C 130.419 29.803,129.983 30.059,129.923 30.156 C 129.863 30.254,129.524 30.333,129.170 30.333 C 128.817 30.333,128.409 30.379,128.264 30.434 C 127.935 30.561,127.853 74.436,128.179 75.731 C 128.359 76.447,128.965 77.000,129.567 77.000 C 129.786 77.000,129.834 77.215,129.837 78.208 C 129.842 79.571,130.048 80.657,130.336 80.835 C 130.443 80.901,130.619 81.134,130.728 81.352 C 130.837 81.571,131.128 81.847,131.375 81.965 C 131.741 82.141,131.843 82.329,131.930 82.985 C 131.989 83.428,132.085 83.861,132.144 83.947 C 132.363 84.268,133.088 84.667,133.454 84.667 C 133.728 84.667,133.833 84.764,133.833 85.016 C 133.833 85.208,133.964 85.586,134.123 85.856 C 134.392 86.312,134.570 86.407,135.391 86.535 C 135.595 86.567,135.791 86.864,135.974 87.415 C 136.249 88.245,136.253 88.248,137.262 88.479 C 137.990 88.646,138.317 88.808,138.428 89.059 C 138.728 89.732,140.101 90.402,141.324 90.471 C 142.311 90.527,142.471 90.585,142.737 90.981 C 143.284 91.795,145.547 92.333,148.420 92.333 C 150.622 92.333,151.167 92.470,151.167 93.023 L 151.167 93.500 154.167 93.500 L 157.167 93.500 157.167 93.000 C 157.167 92.387,156.470 92.487,161.917 92.320 C 169.325 92.092,170.877 91.878,171.532 90.992 C 171.888 90.511,171.930 90.500,173.374 90.500 C 175.518 90.500,176.066 90.312,177.333 89.145 L 178.417 88.148 178.417 59.421 C 178.417 43.621,178.369 30.647,178.311 30.589 C 178.254 30.531,177.665 30.439,177.003 30.383 C 175.920 30.292,175.746 30.226,175.258 29.724 L 174.716 29.167 171.905 29.167 C 168.971 29.167,168.194 29.307,167.141 30.030 C 166.891 30.201,166.383 30.339,165.974 30.346 C 164.322 30.374,163.791 30.545,163.426 31.167 C 163.085 31.747,163.083 31.886,163.035 55.275 L 162.987 78.801 160.952 78.910 C 159.833 78.971,156.711 78.997,154.015 78.968 L 149.113 78.917 148.929 78.259 C 148.723 77.525,147.541 77.007,146.063 77.002 L 145.376 77.000 145.294 76.149 C 145.249 75.681,145.142 75.250,145.056 75.191 C 144.971 75.132,144.734 74.844,144.529 74.552 C 144.325 74.259,144.010 73.973,143.829 73.915 C 143.529 73.820,143.500 73.657,143.500 72.041 C 143.500 71.068,143.394 69.854,143.266 69.344 C 142.503 66.329,142.500 66.242,142.500 49.602 L 142.500 33.815 142.000 32.917 C 141.654 32.295,141.500 31.790,141.500 31.277 C 141.500 30.463,141.353 30.333,140.435 30.333 C 140.139 30.333,139.364 30.071,138.713 29.750 L 137.528 29.167 134.639 29.180 C 131.975 29.193,131.683 29.225,130.891 29.587 M290.891 29.587 C 290.419 29.803,289.983 30.059,289.923 30.156 C 289.863 30.254,289.499 30.334,289.115 30.336 C 288.731 30.337,288.304 30.410,288.167 30.497 C 287.802 30.728,287.804 75.736,288.169 77.265 C 288.419 78.312,288.837 78.819,289.458 78.828 C 289.792 78.833,289.833 78.918,289.833 79.593 C 289.833 81.370,290.320 82.398,291.245 82.571 C 291.833 82.682,291.998 82.915,292.003 83.639 C 292.006 84.319,292.238 84.548,293.027 84.654 C 293.742 84.749,293.751 84.759,293.833 85.496 C 293.925 86.313,294.332 86.660,295.208 86.664 C 295.562 86.666,295.667 86.747,295.667 87.016 C 295.667 87.824,296.151 88.269,297.270 88.492 C 297.943 88.625,298.333 88.785,298.333 88.926 C 298.333 89.547,300.338 90.500,301.646 90.500 C 302.316 90.501,302.460 90.566,302.750 90.999 C 303.286 91.799,305.428 92.324,308.185 92.330 C 310.639 92.336,311.167 92.458,311.167 93.023 L 311.167 93.500 314.167 93.500 L 317.167 93.500 317.167 93.000 C 317.167 92.387,316.470 92.487,321.917 92.320 C 329.325 92.092,330.877 91.878,331.532 90.992 C 331.883 90.517,331.943 90.500,333.254 90.500 C 334.814 90.500,336.463 90.221,336.846 89.892 C 336.991 89.768,337.179 89.662,337.263 89.656 C 337.348 89.651,337.679 89.294,338.000 88.865 L 338.583 88.083 338.583 59.467 C 338.583 36.899,338.540 30.806,338.376 30.643 C 338.252 30.519,337.553 30.411,336.626 30.373 C 335.287 30.318,334.925 30.234,333.885 29.738 C 331.925 28.803,328.756 28.928,327.167 30.004 C 326.908 30.179,326.231 30.328,325.379 30.396 C 323.707 30.531,323.527 30.596,323.279 31.148 C 323.133 31.473,323.071 37.572,323.036 55.184 L 322.989 78.784 321.469 78.892 C 320.633 78.951,317.570 79.000,314.662 79.000 L 309.375 79.000 309.273 78.490 C 309.152 77.887,308.884 77.587,308.326 77.427 C 307.496 77.191,307.000 76.955,307.000 76.797 C 307.000 76.440,306.310 75.697,305.879 75.589 C 305.304 75.444,305.172 75.239,305.169 74.481 C 305.167 73.849,304.594 72.968,303.761 72.312 L 303.333 71.976 303.333 51.746 C 303.333 37.005,303.282 31.403,303.144 31.100 C 302.906 30.577,302.796 30.538,301.214 30.410 C 300.231 30.330,299.627 30.167,298.719 29.736 L 297.521 29.167 294.635 29.180 C 291.975 29.193,291.683 29.225,290.891 29.587 M346.011 29.817 C 345.639 30.341,345.510 32.217,345.832 32.416 C 345.924 32.472,346.081 32.683,346.182 32.884 C 346.314 33.149,346.222 33.103,345.849 32.717 C 345.130 31.975,345.090 30.455,345.773 29.773 C 346.348 29.198,346.440 29.215,346.011 29.817 M346.626 39.444 C 346.741 39.490,346.786 39.608,346.726 39.706 C 346.665 39.804,346.741 39.975,346.894 40.087 C 347.065 40.213,347.130 40.401,347.063 40.576 C 346.975 40.805,346.923 40.818,346.797 40.639 C 346.673 40.462,346.655 40.468,346.709 40.666 C 346.747 40.803,346.921 40.916,347.097 40.916 C 347.305 40.916,347.417 41.033,347.417 41.248 C 347.417 41.453,347.544 41.595,347.750 41.621 C 348.083 41.664,348.083 41.664,347.750 41.510 C 347.427 41.361,347.426 41.356,347.740 41.345 C 348.060 41.333,348.060 41.331,347.740 41.083 C 347.433 40.845,347.433 40.838,347.731 40.943 C 347.959 41.023,348.022 40.988,347.960 40.818 C 347.913 40.689,347.791 40.602,347.688 40.625 C 347.531 40.660,347.425 40.435,347.531 40.292 C 347.595 40.204,346.705 39.334,346.564 39.346 C 346.483 39.354,346.511 39.398,346.626 39.444 M392.833 39.818 C 392.833 40.172,392.339 41.324,392.177 41.346 C 391.384 41.454,391.173 41.658,391.169 42.323 L 391.167 42.729 391.634 42.281 C 391.891 42.035,392.155 41.833,392.221 41.833 C 392.454 41.833,391.825 42.615,391.416 42.834 C 390.862 43.130,390.883 43.370,391.444 43.156 C 392.030 42.933,392.500 42.375,392.500 41.901 C 392.500 41.691,392.588 41.465,392.695 41.399 C 392.831 41.315,392.853 41.375,392.768 41.598 C 392.677 41.838,392.694 41.870,392.839 41.726 C 392.982 41.584,392.983 41.447,392.843 41.185 C 392.703 40.923,392.703 40.833,392.845 40.833 C 392.950 40.833,392.992 40.721,392.940 40.583 C 392.887 40.446,392.916 40.333,393.005 40.333 C 393.218 40.333,393.214 39.715,393.000 39.583 C 392.908 39.527,392.833 39.632,392.833 39.818 M96.799 42.386 C 97.057 43.099,97.904 43.513,99.333 43.625 C 100.666 43.730,100.944 43.865,101.078 44.475 C 101.174 44.914,101.480 45.165,102.191 45.390 C 102.342 45.437,102.592 45.858,102.747 46.325 C 103.026 47.165,103.585 47.667,104.242 47.667 C 104.410 47.667,104.500 47.820,104.500 48.106 C 104.500 49.951,105.072 51.266,105.917 51.360 L 106.417 51.417 106.521 53.833 C 106.667 57.241,106.685 63.031,106.556 65.557 L 106.447 67.697 105.899 67.959 C 105.276 68.256,104.779 69.241,104.592 70.550 C 104.496 71.219,104.404 71.376,104.030 71.508 C 103.250 71.784,103.133 71.907,102.801 72.796 C 102.623 73.275,102.373 73.667,102.247 73.667 C 101.923 73.667,101.219 74.354,101.144 74.745 C 101.102 74.962,100.785 75.187,100.201 75.411 C 99.502 75.681,99.263 75.874,99.036 76.355 C 98.779 76.899,98.669 76.970,97.952 77.057 C 97.513 77.109,96.959 77.306,96.721 77.493 C 96.483 77.680,96.151 77.833,95.983 77.833 C 95.815 77.833,95.415 78.096,95.094 78.417 L 94.511 79.000 90.281 79.000 C 87.955 79.000,85.376 78.952,84.550 78.893 L 83.049 78.787 82.858 77.749 C 82.647 76.607,82.598 45.874,82.804 44.500 L 82.917 43.750 84.034 43.654 C 85.515 43.527,86.379 43.124,86.723 42.402 L 86.995 41.833 91.797 41.833 L 96.600 41.833 96.799 42.386 M348.443 43.075 C 348.381 43.236,348.442 43.466,348.584 43.608 C 348.721 43.745,348.833 43.950,348.833 44.064 C 348.833 44.344,349.818 45.333,350.097 45.333 C 350.407 45.333,350.706 45.945,350.584 46.330 C 350.506 46.575,350.561 46.641,350.825 46.621 C 351.238 46.590,351.237 46.647,350.842 45.880 C 350.541 45.296,350.381 44.675,350.347 43.958 C 350.336 43.732,350.186 43.667,349.672 43.667 C 349.127 43.667,348.970 43.589,348.781 43.229 C 348.587 42.858,348.535 42.834,348.443 43.075 M390.583 43.833 C 390.417 44.017,390.347 44.167,390.428 44.167 C 390.508 44.167,390.404 44.286,390.196 44.432 C 389.878 44.654,389.852 44.738,390.032 44.956 C 390.218 45.180,390.199 45.199,389.888 45.101 C 389.675 45.033,389.479 45.066,389.407 45.182 C 389.332 45.304,389.373 45.346,389.518 45.294 C 389.646 45.249,389.882 45.280,390.044 45.363 C 390.255 45.472,390.326 45.453,390.294 45.299 C 390.270 45.180,390.394 45.083,390.570 45.083 C 390.746 45.082,390.920 44.970,390.957 44.833 C 391.017 44.612,391.005 44.612,390.849 44.833 C 390.709 45.031,390.671 45.035,390.669 44.855 C 390.668 44.704,390.593 44.675,390.450 44.771 C 390.332 44.851,390.377 44.786,390.552 44.625 C 390.726 44.465,390.826 44.221,390.773 44.084 C 390.720 43.946,390.715 43.833,390.761 43.833 C 390.807 43.833,390.912 44.002,390.995 44.208 C 391.104 44.480,391.148 44.506,391.156 44.302 C 391.162 44.146,391.084 43.968,390.982 43.906 C 390.854 43.826,390.866 43.748,391.024 43.648 C 391.148 43.570,391.168 43.504,391.067 43.503 C 390.967 43.501,390.749 43.650,390.583 43.833 M388.833 46.167 C 388.833 46.258,388.946 46.333,389.083 46.333 C 389.221 46.333,389.333 46.258,389.333 46.167 C 389.333 46.075,389.221 46.000,389.083 46.000 C 388.946 46.000,388.833 46.075,388.833 46.167 M350.891 47.031 C 350.916 47.192,350.994 47.383,351.065 47.454 C 351.136 47.525,351.179 47.508,351.161 47.417 C 351.091 47.073,351.177 46.925,351.317 47.146 C 351.397 47.273,351.550 47.322,351.656 47.257 C 351.799 47.168,351.801 47.078,351.664 46.913 C 351.393 46.587,350.836 46.672,350.891 47.031 M388.357 47.006 C 388.140 47.186,387.859 47.333,387.732 47.333 C 387.604 47.333,387.500 47.408,387.500 47.500 C 387.500 47.592,387.613 47.667,387.750 47.667 C 387.887 47.667,388.000 47.577,388.000 47.467 C 388.000 47.311,388.044 47.311,388.200 47.467 C 388.310 47.577,388.479 47.666,388.575 47.664 C 388.689 47.662,388.686 47.619,388.566 47.539 C 388.442 47.456,388.491 47.308,388.717 47.083 L 389.051 46.750 388.932 47.083 C 388.842 47.338,388.860 47.371,389.009 47.223 C 389.496 46.739,388.910 46.544,388.357 47.006 M351.583 47.439 C 351.260 47.694,351.262 47.698,351.667 47.582 C 352.175 47.436,352.501 47.164,352.158 47.172 C 352.025 47.175,351.767 47.295,351.583 47.439 M352.771 48.300 C 352.678 48.451,352.899 48.869,353.060 48.848 C 353.119 48.840,353.160 48.881,353.152 48.940 C 353.131 49.101,353.549 49.322,353.700 49.229 C 353.774 49.184,353.832 49.058,353.831 48.948 C 353.829 48.829,353.764 48.850,353.667 49.000 C 353.507 49.247,353.412 49.056,353.480 48.625 C 353.491 48.556,353.444 48.509,353.375 48.520 C 352.944 48.588,352.753 48.493,353.000 48.333 C 353.150 48.236,353.171 48.171,353.052 48.169 C 352.942 48.168,352.816 48.226,352.771 48.300 M386.667 48.750 C 386.667 48.887,386.554 49.000,386.417 49.000 C 386.279 49.000,386.167 49.112,386.167 49.250 C 386.167 49.581,386.281 49.566,386.788 49.167 C 387.021 48.983,387.122 48.833,387.013 48.833 C 386.903 48.833,386.860 48.758,386.917 48.667 C 386.973 48.575,386.940 48.500,386.843 48.500 C 386.746 48.500,386.667 48.612,386.667 48.750 M384.698 49.676 C 384.485 49.761,384.353 49.897,384.404 49.979 C 384.454 50.060,384.234 50.305,383.915 50.522 C 383.597 50.739,383.335 51.010,383.334 51.125 C 383.334 51.240,383.225 51.333,383.092 51.333 C 382.281 51.333,381.167 51.714,381.167 51.991 C 381.167 52.155,381.020 52.475,380.841 52.702 C 380.519 53.111,380.629 53.500,381.065 53.500 C 381.156 53.500,381.092 53.399,380.924 53.276 C 380.636 53.065,380.642 53.053,381.017 53.067 C 381.300 53.079,381.410 52.998,381.394 52.793 C 381.381 52.634,381.433 52.542,381.508 52.588 C 381.668 52.687,382.500 51.899,382.500 51.649 C 382.500 51.556,382.578 51.529,382.674 51.588 C 382.770 51.647,383.032 51.575,383.257 51.427 C 383.482 51.280,383.667 51.236,383.667 51.329 C 383.667 51.423,383.779 51.500,383.917 51.500 C 384.136 51.500,384.234 51.317,384.194 50.982 C 384.188 50.926,384.379 50.888,384.619 50.898 C 384.877 50.909,385.083 50.815,385.124 50.667 C 385.184 50.444,385.172 50.444,385.015 50.667 C 384.885 50.850,384.838 50.859,384.836 50.698 C 384.834 50.579,384.740 50.528,384.625 50.586 C 384.510 50.644,384.529 50.591,384.667 50.467 C 384.987 50.180,385.375 49.497,385.210 49.511 C 385.140 49.516,384.910 49.591,384.698 49.676 M355.130 49.978 C 355.253 50.300,355.790 50.833,355.990 50.833 C 356.076 50.833,356.193 50.908,356.250 51.000 C 356.473 51.360,355.686 51.141,355.273 50.727 C 355.031 50.486,354.833 50.368,354.833 50.466 C 354.833 50.714,355.759 51.348,356.165 51.379 C 356.349 51.393,356.500 51.447,356.500 51.500 C 356.500 51.552,356.644 51.595,356.821 51.595 C 356.998 51.595,357.106 51.536,357.061 51.464 C 357.017 51.392,356.916 51.333,356.836 51.333 C 356.757 51.333,356.467 51.108,356.192 50.833 C 355.846 50.487,355.771 50.333,355.950 50.333 C 356.171 50.333,356.175 50.293,355.979 50.051 C 355.823 49.860,355.817 49.809,355.958 49.895 C 356.074 49.964,356.167 49.939,356.167 49.838 C 356.167 49.735,355.922 49.673,355.601 49.694 C 355.180 49.723,355.060 49.795,355.130 49.978 M358.167 51.917 C 358.167 52.054,358.250 52.167,358.351 52.167 C 358.465 52.167,358.496 52.327,358.432 52.583 C 358.331 52.983,358.513 53.110,359.054 53.016 C 359.130 53.002,359.146 53.065,359.090 53.155 C 359.035 53.245,358.860 53.277,358.703 53.227 C 358.469 53.152,358.461 53.166,358.658 53.306 C 358.815 53.418,359.003 53.421,359.199 53.316 C 359.393 53.212,359.500 53.212,359.500 53.316 C 359.500 53.405,359.732 53.471,360.016 53.463 C 360.586 53.447,360.277 53.150,359.583 53.047 C 359.177 52.987,358.470 52.163,358.578 51.875 C 358.621 51.760,358.546 51.667,358.411 51.667 C 358.277 51.667,358.167 51.779,358.167 51.917 M362.000 53.713 C 362.000 54.064,362.489 54.652,363.002 54.918 C 363.705 55.281,364.008 55.221,363.386 54.842 C 363.094 54.664,362.767 54.345,362.660 54.134 C 362.487 53.793,362.515 53.801,362.906 54.208 C 363.293 54.611,363.522 54.709,363.943 54.652 C 364.004 54.644,364.118 54.753,364.198 54.895 C 364.283 55.048,364.453 55.110,364.615 55.048 C 364.814 54.972,364.850 55.004,364.750 55.167 C 364.649 55.330,364.687 55.361,364.889 55.284 C 365.042 55.225,365.167 55.250,365.167 55.339 C 365.167 55.427,365.279 55.500,365.417 55.500 C 365.845 55.500,365.692 55.240,365.095 54.956 C 364.669 54.753,364.502 54.734,364.441 54.883 C 364.396 54.993,364.354 54.948,364.346 54.783 C 364.308 53.896,363.865 53.500,362.912 53.500 C 362.283 53.500,362.000 53.566,362.000 53.713 M375.667 53.734 C 375.667 53.871,375.394 54.249,375.061 54.572 C 374.549 55.070,374.499 55.177,374.739 55.269 C 374.895 55.329,375.111 55.288,375.220 55.179 C 375.372 55.025,375.341 55.005,375.083 55.089 C 374.824 55.174,374.804 55.160,374.992 55.027 C 375.125 54.932,375.293 54.892,375.365 54.936 C 375.611 55.088,376.633 54.479,376.745 54.114 C 376.816 53.882,376.888 53.827,376.944 53.964 C 377.067 54.264,376.682 54.677,376.024 54.952 C 375.716 55.081,375.501 55.224,375.547 55.270 C 375.912 55.635,377.333 54.321,377.333 53.618 C 377.333 53.586,376.958 53.542,376.500 53.522 C 375.853 53.492,375.667 53.540,375.667 53.734 M363.752 54.336 C 363.809 54.429,363.938 54.455,364.037 54.394 C 364.145 54.327,364.170 54.359,364.099 54.475 C 363.987 54.656,363.333 54.459,363.333 54.244 C 363.333 54.098,363.647 54.167,363.752 54.336 M373.833 55.333 C 373.833 55.425,373.946 55.500,374.083 55.500 C 374.221 55.500,374.333 55.425,374.333 55.333 C 374.333 55.242,374.221 55.167,374.083 55.167 C 373.946 55.167,373.833 55.242,373.833 55.333 M368.549 55.457 C 369.264 55.489,370.389 55.488,371.049 55.457 C 371.710 55.425,371.125 55.400,369.750 55.400 C 368.375 55.400,367.835 55.426,368.549 55.457 " stroke="none" fill="#242424" fill-rule="evenodd"></path><path id="path3" d="" stroke="none" fill="#58908c" fill-rule="evenodd"></path><path id="path4" d="" stroke="none" fill="#582490" fill-rule="evenodd"></path></g></svg>